<?xml version="1.0" encoding="UTF-8"?>
<svg version="1.1" xmlns="http://www.w3.org/2000/svg" width="612" height="408">
<path d="M0 0 C1.42929027 0.00141103 2.85858415 0.00061741 4.28787231 -0.00221252 C8.16173816 -0.00364598 12.0348285 0.02573137 15.90851426 0.06065726 C19.95904489 0.09193303 24.00959369 0.09485245 28.06022644 0.1007843 C35.72778815 0.11631922 43.39499302 0.15734271 51.06239766 0.20753175 C59.7926477 0.26343633 68.52291486 0.29091448 77.25329936 0.31600893 C95.2096772 0.36825905 113.16572299 0.4561943 131.12182617 0.56762695 C131.12182617 1.22762695 131.12182617 1.88762695 131.12182617 2.56762695 C132.11182617 2.56762695 133.10182617 2.56762695 134.12182617 2.56762695 C136.45670045 11.33264701 136.40560614 20.04818832 136.38061523 29.04541016 C136.38332958 30.69392552 136.386893 32.34243966 136.39123535 33.99095154 C136.40030527 38.44099699 136.39683845 42.89094907 136.39047718 47.34099603 C136.38539339 52.00713355 136.39011483 56.67326339 136.39324951 61.33940125 C136.39688043 69.16785104 136.39211114 76.99626299 136.38256836 84.82470703 C136.37166647 93.87254396 136.37522547 102.92029086 136.38622117 111.96812564 C136.3952963 119.74754205 136.39657879 127.52693137 136.39134383 135.30635136 C136.38822782 139.94815401 136.38780506 144.58991433 136.39441681 149.23171425 C136.40019358 153.59104573 136.39618732 157.95026093 136.3846283 162.30957985 C136.38198431 163.90875556 136.38274236 165.50794107 136.38715363 167.10711288 C136.39262036 169.29011265 136.38576171 171.4727399 136.37579346 173.65571594 C136.37466238 175.48765487 136.37466238 175.48765487 136.37350845 177.35660267 C136.01892358 181.88048344 135.07116798 184.58171146 131.92243958 187.85174561 C128.4569511 189.97498297 126.35974176 190.05176733 122.31201172 190.02172852 C121.31605232 190.02260468 121.31605232 190.02260468 120.29997253 190.02349854 C118.11895316 190.02072563 115.93932364 189.989675 113.75854492 189.95825195 C112.24112189 189.95078665 110.72368919 189.94509508 109.20625305 189.94110107 C105.22265762 189.92586727 101.23965047 189.88660576 97.25628662 189.84228516 C93.18745887 189.80128328 89.11853557 189.78307962 85.04956055 189.76293945 C77.07337986 189.72010855 69.09767631 189.65188545 61.12182617 189.56762695 C61.1322998 190.84404053 61.14277344 192.1204541 61.15356445 193.43554688 C61.18980898 198.17851956 61.21274294 202.92148004 61.23168945 207.66455078 C61.24173686 209.71600403 61.25537709 211.76744299 61.27270508 213.81884766 C61.29700863 216.77029957 61.30832199 219.72156185 61.31713867 222.6730957 C61.32746124 223.58786179 61.33778381 224.50262787 61.34841919 225.44511414 C61.34942626 231.18180217 61.06375094 235.31248852 57.18432617 239.81762695 C54.0584121 242.46991768 51.44804495 242.69445104 47.49806213 242.71911621 C46.54891937 242.72745987 45.59977661 242.73580353 44.62187195 242.74440002 C43.06252678 242.75067665 43.06252678 242.75067665 41.47167969 242.75708008 C40.37551331 242.76537338 39.27934692 242.77366669 38.14996338 242.7822113 C35.76657628 242.79962455 33.38317193 242.81478787 30.99975777 242.82798767 C27.23041916 242.84899014 23.46116702 242.87601532 19.69187927 242.90466309 C11.68939374 242.96439994 3.68687068 243.01658162 -4.31567383 243.06762695 C-13.58346132 243.12676137 -22.85120284 243.18910382 -32.11891365 243.25950623 C-35.83702862 243.2861105 -39.55514781 243.30690786 -43.27330017 243.32751465 C-45.54841314 243.34411668 -47.82352417 243.36098843 -50.09863281 243.37817383 C-51.65494164 243.38445045 -51.65494164 243.38445045 -53.24269104 243.39085388 C-54.19465363 243.39919754 -55.14661621 243.4075412 -56.12742615 243.4161377 C-56.95314338 243.42129143 -57.77886061 243.42644516 -58.62959957 243.43175507 C-60.86940076 243.56709683 -62.76108353 243.8204551 -64.87817383 244.56762695 C-66.78544249 248.08101659 -67.25589551 251.65539022 -67.87817383 255.56762695 C-66.9201738 255.56318573 -65.96217377 255.55874451 -64.97514343 255.5541687 C-55.95509636 255.51365803 -46.93506771 255.4836596 -37.91495037 255.46400261 C-33.27740887 255.4535571 -28.6399407 255.43938392 -24.00244141 255.41674805 C-19.52856028 255.395047 -15.05474977 255.38306411 -10.58082008 255.37787247 C-8.8723521 255.37417178 -7.16388805 255.36694544 -5.45545006 255.35616684 C-3.06591762 255.34168824 -0.67667849 255.33964747 1.71289062 255.34057617 C2.42211166 255.33338562 3.1313327 255.32619507 3.86204529 255.31878662 C7.51789508 255.33420214 8.98905184 255.47911073 12.12182617 257.56762695 C12.5027771 259.91392517 12.5027771 259.91392517 12.51000977 262.88769531 C12.51946625 263.99902328 12.52892273 265.11035126 12.53866577 266.25535583 C12.52955673 268.06315269 12.52955673 268.06315269 12.52026367 269.9074707 C12.52313385 271.1405043 12.52600403 272.3735379 12.52896118 273.64393616 C12.53153055 276.92597166 12.5194278 280.20758379 12.50268555 283.48956299 C12.4968363 285.50164378 12.50265792 287.51333151 12.51293945 289.52539062 C12.53143915 293.38210373 12.52923418 297.23823359 12.52026367 301.0949707 C12.52633636 302.29814438 12.53240906 303.50131805 12.53866577 304.74095154 C12.52920929 305.85543167 12.51975281 306.9699118 12.51000977 308.11816406 C12.50762299 309.1003038 12.50523621 310.08244354 12.5027771 311.09434509 C12.03984935 314.09985244 11.55340787 314.78362092 9.12182617 316.56762695 C6.33757687 316.94235706 6.33757687 316.94235706 2.89012146 316.94184875 C1.58469391 316.94886307 0.27926636 316.95587738 -1.0657196 316.96310425 C-2.51565705 316.9556763 -3.96559296 316.94794514 -5.41552734 316.93994141 C-6.93980152 316.94236889 -8.46407411 316.94608779 -9.98834229 316.95100403 C-14.13081357 316.96042188 -18.27304895 316.9509806 -22.41550183 316.9376719 C-26.74542106 316.92637135 -31.07532844 316.93046377 -35.40525818 316.93241882 C-42.6761359 316.93330215 -49.94692046 316.92221261 -57.21777344 316.90380859 C-65.63217015 316.88263242 -74.04643042 316.87913254 -82.46084839 316.88537055 C-90.5462586 316.89105846 -98.63162059 316.88542585 -106.71702385 316.87419701 C-110.16237209 316.86954421 -113.60769092 316.86868009 -117.05304146 316.87078285 C-121.10695639 316.87266183 -125.16073176 316.86459212 -129.21461487 316.84872246 C-130.70538697 316.84446791 -132.19617319 316.84363687 -133.68694878 316.84641266 C-135.71578987 316.84961811 -137.74463915 316.83935796 -139.77345276 316.82832336 C-140.91073602 316.82627049 -142.04801928 316.82421762 -143.21976566 316.82210255 C-145.87817383 316.56762695 -145.87817383 316.56762695 -147.87817383 314.56762695 C-148.11868286 312.12521362 -148.11868286 312.12521362 -148.10522461 309.01635742 C-148.10507355 307.85530487 -148.10492249 306.69425232 -148.10476685 305.49801636 C-148.09444427 304.23965973 -148.0841217 302.9813031 -148.07348633 301.68481445 C-148.07065643 300.40027374 -148.06782654 299.11573303 -148.06491089 297.79226685 C-148.05727192 294.37599929 -148.03762135 290.95990159 -148.01550293 287.54370117 C-147.99505007 284.05821023 -147.98591038 280.57269185 -147.97583008 277.0871582 C-147.95437557 270.24724464 -147.92023654 263.40744395 -147.87817383 256.56762695 C-144.91409824 255.08558916 -142.25738217 255.44841869 -138.94995117 255.45410156 C-137.88149712 255.45388252 -137.88149712 255.45388252 -136.79145813 255.45365906 C-134.43231177 255.45435685 -132.07324393 255.46214299 -129.71411133 255.4699707 C-128.08029219 255.47183536 -126.44647249 255.47325904 -124.81265259 255.47425842 C-120.50869203 255.47807986 -116.20476512 255.48790698 -111.90081787 255.4989624 C-107.51046199 255.50918454 -103.12010068 255.51375777 -98.72973633 255.51879883 C-90.11253337 255.52952956 -81.49535778 255.54660152 -72.87817383 255.56762695 C-72.89775146 254.95709473 -72.9173291 254.3465625 -72.9375 253.7175293 C-72.96034058 252.5102417 -72.96034058 252.5102417 -72.98364258 251.27856445 C-73.00322021 250.48240723 -73.02279785 249.68625 -73.04296875 248.8659668 C-72.78240898 245.23202657 -71.24155694 243.25038616 -68.87817383 240.56762695 C-62.57908108 235.76042459 -55.09913609 236.43292708 -47.54589844 236.48583984 C-46.51917526 236.4889064 -45.49245209 236.49197296 -44.43461609 236.49513245 C-42.21168673 236.50227039 -39.98876368 236.5116514 -37.76585197 236.52302742 C-34.24807695 236.54044382 -30.7303475 236.55072481 -27.21253967 236.5589447 C-17.21293835 236.58337923 -7.21339869 236.6190318 2.78613281 236.66357422 C8.90734389 236.69034268 15.02851972 236.70739391 21.14977837 236.71844292 C23.48179874 236.72465349 25.81381219 236.73465975 28.14579964 236.7485218 C31.40356056 236.76771956 34.66113548 236.77463136 37.91894531 236.77880859 C38.88272095 236.78757019 39.84649658 236.79633179 40.83947754 236.80535889 C48.03315696 236.96587418 48.03315696 236.96587418 54.12182617 233.56762695 C54.24380425 232.18711837 54.29951516 230.80065048 54.32714844 229.41503906 C54.34709366 228.53420151 54.36703888 227.65336395 54.3875885 226.74583435 C54.40430099 225.78854935 54.42101349 224.83126434 54.43823242 223.8449707 C54.46940407 222.38215416 54.46940407 222.38215416 54.50120544 220.88978577 C54.5668103 217.76164065 54.62563645 214.63340873 54.68432617 211.50512695 C54.72750101 209.38988345 54.77111495 207.27464886 54.81518555 205.15942383 C54.92250272 199.96225108 55.02424838 194.76499118 55.12182617 189.56762695 C47.93164817 189.65991481 40.74180717 189.76722324 33.55200195 189.88500977 C31.10576472 189.92330829 28.65947101 189.9581596 26.21313477 189.98950195 C22.69811811 190.035133 19.18349062 190.09313152 15.66870117 190.15356445 C14.57378357 190.16511566 13.47886597 190.17666687 12.35076904 190.18856812 C11.33001282 190.20843781 10.30925659 190.2283075 9.25756836 190.2487793 C7.91187775 190.2687648 7.91187775 190.2687648 6.53900146 190.28915405 C3.9557271 190.58676255 2.4013326 191.36626327 0.12182617 192.56762695 C-6.42434214 193.92722082 -13.26823692 193.71420628 -19.92114258 193.70043945 C-21.48847893 193.70187454 -21.48847893 193.70187454 -23.08747864 193.70333862 C-25.29529887 193.70401631 -27.50312114 193.70219082 -29.7109375 193.69799805 C-33.01087195 193.69271469 -36.31066584 193.69792032 -39.6105957 193.7043457 C-53.39332251 193.70821954 -67.11642635 193.32303891 -80.87817383 192.56762695 C-80.87817383 198.17762695 -80.87817383 203.78762695 -80.87817383 209.56762695 C-79.55817383 209.50575195 -78.23817383 209.44387695 -76.87817383 209.38012695 C-71.16742061 209.41598726 -66.60110492 210.38336266 -62.08129883 214.0090332 C-58.25536454 217.93517053 -57.14671876 221.32553688 -56.78833008 226.74731445 C-56.87817383 228.56762695 -56.87817383 228.56762695 -57.87817383 229.56762695 C-60.48967671 229.66804153 -63.07475747 229.70379752 -65.68676758 229.69702148 C-66.91352707 229.69964996 -66.91352707 229.69964996 -68.16506958 229.70233154 C-70.88195893 229.7067508 -73.59878376 229.70381182 -76.31567383 229.70043945 C-78.19514987 229.70111247 -80.07462582 229.70208248 -81.95410156 229.70333862 C-85.89852729 229.7048157 -89.84293041 229.70266074 -93.78735352 229.69799805 C-98.85529886 229.69230075 -103.92319125 229.69557971 -108.99113464 229.70157051 C-112.8737427 229.70517587 -116.75633811 229.70403765 -120.63894653 229.70144272 C-122.50814826 229.70077338 -124.37735111 229.70160211 -126.24655151 229.70392227 C-128.85425887 229.70644839 -131.46187924 229.7026088 -134.06958008 229.69702148 C-134.84987579 229.69904572 -135.63017151 229.70106995 -136.43411255 229.70315552 C-141.76391129 229.68188949 -141.76391129 229.68188949 -142.87817383 228.56762695 C-142.41073883 222.86491992 -141.83480074 219.05103804 -138.25317383 214.50512695 C-132.32585749 209.66968468 -126.30833004 209.21933838 -118.87817383 209.56762695 C-118.87817383 203.95762695 -118.87817383 198.34762695 -118.87817383 192.56762695 C-120.78211914 192.63981445 -122.68606445 192.71200195 -124.64770508 192.78637695 C-139.60038628 193.32169399 -154.54030938 193.67475915 -169.50317383 193.69262695 C-170.58412827 193.69637329 -170.58412827 193.69637329 -171.68692017 193.70019531 C-199.12479702 193.77860381 -199.12479702 193.77860381 -204.87817383 189.56762695 C-208.27640395 185.03665345 -210.00718015 181.65493356 -209.99169922 176.00439453 C-209.99162369 175.08366653 -209.99154816 174.16293854 -209.99147034 173.21430969 C-209.98630905 172.2235997 -209.98114777 171.23288971 -209.97583008 170.2121582 C-209.97441513 169.19538498 -209.97300018 168.17861176 -209.97154236 167.13102722 C-209.9659409 163.88069732 -209.95338815 160.63043607 -209.94067383 157.38012695 C-209.93565902 155.17765399 -209.93109608 152.97517995 -209.92700195 150.77270508 C-209.915971 145.37098891 -209.89923145 139.96931284 -209.87817383 134.56762695 C-215.09337595 134.58701715 -220.30688349 134.63863866 -225.52148438 134.72021484 C-227.29547899 134.7434181 -229.06961182 134.75779604 -230.84375 134.76318359 C-233.39386348 134.77245673 -235.94179637 134.81340628 -238.49145508 134.8605957 C-239.68222404 134.85469673 -239.68222404 134.85469673 -240.89704895 134.84867859 C-243.40490643 134.85995864 -243.40490643 134.85995864 -246.87817383 135.56762695 C-249.99193889 139.41482609 -250.24575914 142.5247996 -250.21875 147.37744141 C-250.21918808 148.04141434 -250.21962616 148.70538727 -250.22007751 149.38948059 C-250.21799806 151.57026225 -250.19470844 153.75026192 -250.17114258 155.9309082 C-250.16554359 157.44833455 -250.16127492 158.96576635 -250.15827942 160.48320007 C-250.14685441 164.46667595 -250.11740778 168.44982089 -250.08416748 172.4331665 C-250.0534158 176.50202966 -250.03976322 180.57094657 -250.0246582 184.63989258 C-249.9925355 192.61595548 -249.94136791 200.59174999 -249.87817383 208.56762695 C-246.37963666 210.14089813 -243.61314195 210.82498305 -239.78417969 210.87060547 C-238.30255592 210.89556847 -238.30255592 210.89556847 -236.79100037 210.92103577 C-235.73566605 210.92944992 -234.68033173 210.93786407 -233.59301758 210.9465332 C-231.95315636 210.97202492 -231.95315636 210.97202492 -230.28016663 210.99803162 C-226.79206085 211.05109135 -223.30396613 211.09142424 -219.81567383 211.13012695 C-216.32387157 211.17409584 -212.83215997 211.22083267 -209.34046936 211.27293396 C-207.16918251 211.30481445 -204.99781584 211.33172817 -202.82640076 211.35316467 C-201.34950523 211.37339943 -201.34950523 211.37339943 -199.84277344 211.39404297 C-198.97849228 211.40355484 -198.11421112 211.41306671 -197.22373962 211.42286682 C-193.66521909 211.64248628 -191.53190913 212.02925671 -188.75317383 214.31762695 C-184.19604445 219.78618221 -184.61131508 225.32329471 -184.68286133 232.1184082 C-184.68569122 233.13235153 -184.68852112 234.14629486 -184.69143677 235.19096375 C-184.70260758 238.42080622 -184.72770672 241.65036867 -184.75317383 244.88012695 C-184.76320762 247.07348232 -184.77233278 249.26684204 -184.78051758 251.46020508 C-184.80253676 256.82944081 -184.8359836 262.19851387 -184.87817383 267.56762695 C-183.76740479 267.54796875 -182.65663574 267.52831055 -181.51220703 267.50805664 C-177.9464256 267.56650815 -176.78275313 267.70505007 -174.06567383 269.81762695 C-173.50235352 270.2352832 -172.9390332 270.65293945 -172.35864258 271.08325195 C-167.40096233 276.05401315 -168.51036065 282.79199372 -168.50317383 289.31762695 C-168.47868164 290.47262695 -168.45418945 291.62762695 -168.42895508 292.81762695 C-168.40308937 300.37041312 -168.89263555 306.40364153 -174.36132812 312.1171875 C-179.51908451 316.64985794 -184.09953379 317.03809199 -190.72973633 316.97387695 C-197.20138704 316.13882525 -201.20302281 312.73234675 -205.09692383 307.70043945 C-208.04721123 302.23011489 -207.45598625 296.05180092 -207.37817383 290.00512695 C-207.39364258 288.79920898 -207.40911133 287.59329102 -207.42504883 286.35083008 C-207.37639021 275.33573632 -207.37639021 275.33573632 -202.87817383 270.56762695 C-198.67414328 267.8258679 -195.80845195 267.44402667 -190.87817383 267.56762695 C-190.9958636 261.23204239 -191.12069326 254.89662735 -191.25048828 248.5612793 C-191.29380074 246.40603831 -191.33547846 244.25076382 -191.37548828 242.09545898 C-191.43328 238.99753728 -191.49694906 235.89978361 -191.56176758 232.80200195 C-191.57848007 231.83832703 -191.59519257 230.8746521 -191.6124115 229.8817749 C-191.64232933 228.53082733 -191.64232933 228.53082733 -191.67285156 227.15258789 C-191.68839584 226.36205017 -191.70394012 225.57151245 -191.71995544 224.75701904 C-191.87674835 222.58735236 -192.28433064 220.65626163 -192.87817383 218.56762695 C-199.19503972 217.63769293 -205.35037371 217.4192906 -211.72973633 217.3918457 C-213.81828828 217.36866621 -215.90683001 217.34454967 -217.99536133 217.31958008 C-221.25845416 217.28438986 -224.52116364 217.25505333 -227.78442383 217.24169922 C-230.95415214 217.22622203 -234.12279534 217.18604335 -237.29223633 217.1418457 C-238.75024155 217.14470833 -238.75024155 217.14470833 -240.23770142 217.14762878 C-245.91019518 217.04536064 -249.47858888 216.522021 -253.87817383 212.56762695 C-256.23360622 209.02946721 -256.13726539 205.85581188 -256.15283203 201.67529297 C-256.15794296 200.99023682 -256.16305389 200.30518066 -256.1683197 199.59936523 C-256.18219355 197.33999845 -256.18126066 195.08093746 -256.17895508 192.8215332 C-256.18284321 191.2473896 -256.18717813 189.67324704 -256.19194031 188.09910583 C-256.19939774 184.80138751 -256.19911471 181.50377625 -256.19384766 178.20605469 C-256.18805341 173.98479487 -256.20498494 169.76397387 -256.22819233 165.5427866 C-256.24294022 162.29222562 -256.24379995 159.04177007 -256.2406826 155.79118156 C-256.24119528 154.23508777 -256.24642298 152.678988 -256.25649452 151.12292671 C-256.26886259 148.94478141 -256.26206594 146.76748763 -256.25048828 144.58935547 C-256.25111771 143.35121597 -256.25174713 142.11307648 -256.25239563 140.8374176 C-255.71345649 136.12839702 -253.58468612 132.53283679 -249.87817383 129.56762695 C-245.8210729 128.32390265 -241.81722029 128.44166971 -237.61254883 128.4699707 C-236.819151 128.47138565 -236.02575317 128.4728006 -235.20831299 128.47425842 C-232.68156111 128.4798428 -230.15489879 128.49239241 -227.62817383 128.50512695 C-225.91202928 128.51014397 -224.19588333 128.51470653 -222.47973633 128.51879883 C-218.27918114 128.52980712 -214.07869266 128.54706099 -209.87817383 128.56762695 C-209.88705627 127.83592789 -209.89593872 127.10422882 -209.90509033 126.35035706 C-209.98556224 119.42194759 -210.0463029 112.49360885 -210.08542252 105.56485081 C-210.10621137 102.00347867 -210.13436668 98.44249582 -210.17993164 94.88134766 C-210.23209916 90.77804026 -210.25119077 86.67513556 -210.26879883 82.5715332 C-210.28944397 81.30555801 -210.31008911 80.03958282 -210.33135986 78.73524475 C-210.33490856 64.63360003 -210.33490856 64.63360003 -205.87817383 59.56762695 C-198.25281543 54.07070818 -189.5273621 55.03299158 -180.53833008 55.11352539 C-178.77362595 55.11465472 -177.00891995 55.11401834 -175.24421692 55.11175537 C-170.46988352 55.11061062 -165.69595446 55.13408115 -160.92171478 55.1620512 C-155.92626511 55.18710477 -150.93080554 55.18940997 -145.93530273 55.19415283 C-136.48295837 55.20657098 -127.03079969 55.23937691 -117.57853699 55.27955079 C-106.81437453 55.32430461 -96.05020307 55.34626463 -85.28597069 55.36633253 C-63.14993488 55.40811054 -41.01406607 55.47844004 -18.87817383 55.56762695 C-18.88927689 54.9523262 -18.90037994 54.33702545 -18.91181946 53.70307922 C-19.0224888 47.29552739 -19.09787262 40.88824727 -19.15283203 34.47998047 C-19.17796697 32.08891776 -19.21208016 29.69793181 -19.25537109 27.30712891 C-19.31606444 23.86902931 -19.34439455 20.43194599 -19.36645508 16.9934082 C-19.39226151 15.92552567 -19.41806793 14.85764313 -19.44465637 13.75740051 C-19.44632762 9.32915773 -19.28697066 6.34893355 -17.21504211 2.38899231 C-11.7425316 -0.59807227 -6.10435037 -0.08404767 0 0 Z " fill="#F7F9F9" transform="translate(359.878173828125,52.432373046875)"/>
<path d="M0 0 C63.36 0 126.72 0 192 0 C192 35.97 192 71.94 192 109 C128.64 109 65.28 109 0 109 C0 73.03 0 37.06 0 0 Z " fill="#E9EDEF" transform="translate(164,122)"/>
<path d="M0 0 C0.80802539 -0.00538554 1.61605078 -0.01077108 2.44856179 -0.01631981 C5.14767775 -0.03059158 7.84630274 -0.02349764 10.54544067 -0.01637268 C12.48406366 -0.0220767 14.42268328 -0.02904108 16.36129761 -0.03717041 C21.6216907 -0.05511445 26.88191709 -0.05393094 32.1423316 -0.04822803 C36.53595116 -0.04513766 40.92953862 -0.05122702 45.32315361 -0.05726677 C55.68991968 -0.07131479 66.05660334 -0.06974868 76.42337036 -0.05836487 C87.11275568 -0.04688605 97.80189004 -0.0609548 108.49124229 -0.08776134 C117.67359587 -0.10992522 126.85587071 -0.11655408 136.03824914 -0.11068493 C141.52030008 -0.10731549 147.00219018 -0.10972958 152.4842186 -0.12693596 C157.64056548 -0.14241363 162.79654098 -0.13844023 167.95287323 -0.11963081 C169.84265955 -0.11594709 171.73247343 -0.11904708 173.62223434 -0.1295166 C176.20756677 -0.14274337 178.79167277 -0.13116461 181.37695312 -0.11352539 C182.11996544 -0.1231304 182.86297775 -0.1327354 183.62850559 -0.14263147 C189.02437661 -0.06718826 193.32320545 1.33868511 197.81546021 4.38768005 C198.14546021 5.04768005 198.47546021 5.70768005 198.81546021 6.38768005 C201.40151352 6.85600655 201.40151352 6.85600655 204.37796021 7.01268005 C205.38987427 7.08744568 206.40178833 7.1622113 207.44436646 7.23924255 C208.22682739 7.28822693 209.00928833 7.3372113 209.81546021 7.38768005 C209.81546021 7.71768005 209.81546021 8.04768005 209.81546021 8.38768005 C206.51546021 8.38768005 203.21546021 8.38768005 199.81546021 8.38768005 C200.14546021 9.04768005 200.47546021 9.70768005 200.81546021 10.38768005 C200.90880453 13.25599557 200.94120831 16.09986269 200.9289856 18.96824646 C200.92913162 19.85611343 200.92927765 20.74398041 200.9294281 21.65875244 C200.92872976 24.60227374 200.92094102 27.54573227 200.91311646 30.48924255 C200.911252 32.52662624 200.90982822 34.56401036 200.90882874 36.60139465 C200.90500575 41.97065971 200.89517732 47.33989783 200.88412476 52.70915222 C200.87390594 58.18532446 200.8693301 63.66150104 200.86428833 69.13768005 C200.85355487 79.88769191 200.83648106 90.63768374 200.81546021 101.38768005 C201.47546021 101.38768005 202.13546021 101.38768005 202.81546021 101.38768005 C202.81546021 102.04768005 202.81546021 102.70768005 202.81546021 103.38768005 C202.15546021 103.38768005 201.49546021 103.38768005 200.81546021 103.38768005 C200.83117065 104.02270447 200.8468811 104.65772888 200.86306763 105.31199646 C200.92574611 108.21213235 200.96455437 111.11212529 201.00296021 114.01268005 C201.04066528 115.51121521 201.04066528 115.51121521 201.07913208 117.0400238 C201.14732804 123.9050835 200.46992116 128.41146626 195.75296021 133.70018005 C189.74544941 138.93252817 179.33007466 137.53613143 171.77249146 137.52049255 C170.20515511 137.52192764 170.20515511 137.52192764 168.6061554 137.52339172 C166.39833516 137.52406941 164.19051289 137.52224392 161.98269653 137.51805115 C158.68276208 137.51276779 155.3829682 137.51797342 152.08303833 137.5243988 C138.30031152 137.52827264 124.57720768 137.14309201 110.81546021 136.38768005 C110.81546021 141.99768005 110.81546021 147.60768005 110.81546021 153.38768005 C112.13546021 153.32580505 113.45546021 153.26393005 114.81546021 153.20018005 C120.52621342 153.23604036 125.09252911 154.20341576 129.61233521 157.8290863 C133.43826949 161.75522363 134.54691527 165.14558998 134.90530396 170.56736755 C134.81546021 172.38768005 134.81546021 172.38768005 133.81546021 173.38768005 C131.20395733 173.48809463 128.61887656 173.52385062 126.00686646 173.51707458 C124.78010696 173.51970306 124.78010696 173.51970306 123.52856445 173.52238464 C120.8116751 173.5268039 118.09485028 173.52386492 115.37796021 173.52049255 C113.49848417 173.52116557 111.61900821 173.52213558 109.73953247 173.52339172 C105.79510675 173.5248688 101.85070362 173.52271384 97.90628052 173.51805115 C92.83833518 173.51235385 87.77044279 173.51563281 82.70249939 173.52162361 C78.81989133 173.52522897 74.93729593 173.52409075 71.0546875 173.52149582 C69.18548578 173.52082648 67.31628292 173.52165521 65.44708252 173.52397537 C62.83937517 173.52650149 60.23175479 173.5226619 57.62405396 173.51707458 C56.84375824 173.51909882 56.06346252 173.52112305 55.25952148 173.52320862 C49.92972274 173.50194259 49.92972274 173.50194259 48.81546021 172.38768005 C49.28289521 166.68497302 49.85883329 162.87109114 53.44046021 158.32518005 C59.36777654 153.48973778 65.385304 153.03939148 72.81546021 153.38768005 C72.81546021 147.77768005 72.81546021 142.16768005 72.81546021 136.38768005 C70.91151489 136.45986755 69.00756958 136.53205505 67.04592896 136.60643005 C52.09324775 137.14174709 37.15332466 137.49481225 22.19046021 137.51268005 C21.10950577 137.51642639 21.10950577 137.51642639 20.00671387 137.52024841 C-7.43116299 137.59865691 -7.43116299 137.59865691 -13.18453979 133.38768005 C-16.58276992 128.85670655 -18.31354611 125.47498666 -18.29806519 119.82444763 C-18.29798965 118.90371964 -18.29791412 117.98299164 -18.2978363 117.03436279 C-18.29267502 116.0436528 -18.28751373 115.05294281 -18.28219604 114.0322113 C-18.2807811 113.01543808 -18.27936615 111.99866486 -18.27790833 110.95108032 C-18.27230686 107.70075042 -18.25975412 104.45048917 -18.24703979 101.20018005 C-18.24202498 98.99770709 -18.23746204 96.79523305 -18.23336792 94.59275818 C-18.22233696 89.19104201 -18.20559742 83.78936594 -18.18453979 78.38768005 C-23.39974192 78.40707025 -28.61324946 78.45869176 -33.82785034 78.54026794 C-35.60184496 78.5634712 -37.37597779 78.57784914 -39.15011597 78.58323669 C-41.70022945 78.59250983 -44.24816233 78.63345938 -46.79782104 78.6806488 C-47.59166702 78.67671616 -48.385513 78.67278351 -49.20341492 78.66873169 C-51.7112724 78.68001174 -51.7112724 78.68001174 -55.18453979 79.38768005 C-58.29830486 83.23487919 -58.5521251 86.3448527 -58.52511597 91.19749451 C-58.52555405 91.86146744 -58.52599213 92.52544037 -58.52644348 93.20953369 C-58.52436403 95.39031535 -58.5010744 97.57031502 -58.47750854 99.7509613 C-58.47190955 101.26838766 -58.46764089 102.78581945 -58.46464539 104.30325317 C-58.45322038 108.28672905 -58.42377375 112.26987399 -58.39053345 116.2532196 C-58.35978177 120.32208276 -58.34612919 124.39099967 -58.33102417 128.45994568 C-58.29890147 136.43600858 -58.24773388 144.41180309 -58.18453979 152.38768005 C-54.68600263 153.96095123 -51.91950792 154.64503615 -48.09054565 154.69065857 C-46.60892189 154.71562157 -46.60892189 154.71562157 -45.09736633 154.74108887 C-44.04203201 154.74950302 -42.98669769 154.75791718 -41.89938354 154.7665863 C-40.25952232 154.79207802 -40.25952232 154.79207802 -38.58653259 154.81808472 C-35.09842681 154.87114445 -31.6103321 154.91147734 -28.12203979 154.95018005 C-24.63023754 154.99414894 -21.13852593 155.04088577 -17.64683533 155.09298706 C-15.47554847 155.12486755 -13.3041818 155.15178127 -11.13276672 155.17321777 C-9.6558712 155.19345253 -9.6558712 155.19345253 -8.1491394 155.21409607 C-7.28485825 155.22360794 -6.42057709 155.23311981 -5.53010559 155.24291992 C-1.97158506 155.46253939 0.16172491 155.84930981 2.94046021 158.13768005 C7.49758959 163.60623531 7.08231895 169.14334781 7.01077271 175.9384613 C7.00794281 176.95240463 7.00511292 177.96634796 7.00219727 179.01101685 C6.99102645 182.24085932 6.96592732 185.47042177 6.94046021 188.70018005 C6.93042641 190.89353542 6.92130126 193.08689514 6.91311646 195.28025818 C6.89109727 200.64949391 6.85765043 206.01856697 6.81546021 211.38768005 C7.92622925 211.36802185 9.03699829 211.34836365 10.181427 211.32810974 C13.74720843 211.38656125 14.9108809 211.52510317 17.62796021 213.63768005 C18.19128052 214.0553363 18.75460083 214.47299255 19.33499146 214.90330505 C24.2926717 219.87406625 23.18327338 226.61204682 23.19046021 233.13768005 C23.21495239 234.29268005 23.23944458 235.44768005 23.26467896 236.63768005 C23.29054466 244.19046622 22.80099848 250.22369463 17.33230591 255.9372406 C12.17454952 260.46991104 7.59410025 260.85814509 0.96389771 260.79393005 C-5.50775301 259.95887835 -9.50938878 256.55239985 -13.40328979 251.52049255 C-16.3535772 246.05016799 -15.76235222 239.87185403 -15.68453979 233.82518005 C-15.70000854 232.61926208 -15.71547729 231.41334412 -15.73141479 230.17088318 C-15.68275618 219.15578942 -15.68275618 219.15578942 -11.18453979 214.38768005 C-6.98050925 211.645921 -4.11481792 211.26407977 0.81546021 211.38768005 C0.69777044 205.05209549 0.57294077 198.71668045 0.44314575 192.3813324 C0.39983329 190.22609141 0.35815558 188.07081692 0.31814575 185.91551208 C0.26035403 182.81759038 0.19668497 179.71983671 0.13186646 176.62205505 C0.11515396 175.65838013 0.09844147 174.6947052 0.08122253 173.701828 C0.0513047 172.35088043 0.0513047 172.35088043 0.02078247 170.97264099 C0.00523819 170.18210327 -0.01030609 169.39156555 -0.02632141 168.57707214 C-0.18311432 166.40740547 -0.59069661 164.47631473 -1.18453979 162.38768005 C-7.50140569 161.45774603 -13.65673967 161.2393437 -20.03610229 161.2118988 C-22.12465425 161.18871931 -24.21319598 161.16460277 -26.30172729 161.13963318 C-29.56482012 161.10444296 -32.82752961 161.07510643 -36.09078979 161.06175232 C-39.2605181 161.04627513 -42.42916131 161.00609645 -45.59860229 160.9618988 C-47.05660751 160.96476143 -47.05660751 160.96476143 -48.54406738 160.96768188 C-54.21656115 160.86541374 -57.78495484 160.3420741 -62.18453979 156.38768005 C-64.53997219 152.84952031 -64.44363136 149.67586498 -64.459198 145.49534607 C-64.46430893 144.81028992 -64.46941986 144.12523376 -64.47468567 143.41941833 C-64.48855951 141.16005155 -64.48762663 138.90099056 -64.48532104 136.6415863 C-64.48920918 135.0674427 -64.49354409 133.49330014 -64.49830627 131.91915894 C-64.50576371 128.62144061 -64.50548067 125.32382935 -64.50021362 122.02610779 C-64.49441938 117.80484797 -64.51135091 113.58402697 -64.5345583 109.3628397 C-64.54930619 106.11227872 -64.55016592 102.86182317 -64.54704857 99.61123466 C-64.54756124 98.05514087 -64.55278895 96.4990411 -64.56286049 94.94297981 C-64.57522855 92.76483451 -64.5684319 90.58754073 -64.55685425 88.40940857 C-64.55748367 87.17126907 -64.5581131 85.93312958 -64.5587616 84.6574707 C-64.01982245 79.94845012 -61.89105209 76.35288989 -58.18453979 73.38768005 C-54.12743887 72.14395575 -50.12358626 72.26172281 -45.91891479 72.2900238 C-45.12551697 72.29143875 -44.33211914 72.2928537 -43.51467896 72.29431152 C-40.98792708 72.2998959 -38.46126476 72.31244551 -35.93453979 72.32518005 C-34.21839524 72.33019707 -32.5022493 72.33475963 -30.78610229 72.33885193 C-26.58554711 72.34986022 -22.38505862 72.36711409 -18.18453979 72.38768005 C-18.19342224 71.65598099 -18.20230469 70.92428192 -18.2114563 70.17041016 C-18.29192821 63.24200069 -18.35266886 56.31366195 -18.39178848 49.38490391 C-18.41257734 45.82353177 -18.44073264 42.26254892 -18.48629761 38.70140076 C-18.53846512 34.59809336 -18.55755673 30.49518866 -18.57516479 26.3915863 C-18.59580994 25.12561111 -18.61645508 23.85963593 -18.63772583 22.55529785 C-18.64117819 8.83649423 -18.64117819 8.83649423 -14.18453979 3.38768005 C-9.45542702 0.47868259 -5.42916684 -0.04365309 0 0 Z M-4.18453979 13.38768005 C-4.18453979 49.35768005 -4.18453979 85.32768005 -4.18453979 122.38768005 C59.17546021 122.38768005 122.53546021 122.38768005 187.81546021 122.38768005 C187.81546021 86.41768005 187.81546021 50.44768005 187.81546021 13.38768005 C124.45546021 13.38768005 61.09546021 13.38768005 -4.18453979 13.38768005 Z " fill="#364254" transform="translate(168.18453979492188,108.61231994628906)"/>
<path d="M0 0 C1.32 0 2.64 0 4 0 C4.12686439 6.74418027 4.21437811 13.48805244 4.2746582 20.2331543 C4.29978928 22.52721658 4.33389969 24.8211989 4.37719727 27.11499023 C4.43790832 30.41410049 4.46622437 33.71215146 4.48828125 37.01171875 C4.51408768 38.03585373 4.5398941 39.05998871 4.56648254 40.11515808 C4.56928394 47.24089543 4.56928394 47.24089543 1.65698242 51.12426758 C-1.87440344 53.61729685 -4.41082909 54.12518212 -8.62376404 54.15148926 C-9.5729068 54.15983292 -10.52204956 54.16817657 -11.49995422 54.17677307 C-13.05929939 54.1830497 -13.05929939 54.1830497 -14.65014648 54.18945312 C-15.74631287 54.19774643 -16.84247925 54.20603973 -17.97186279 54.21458435 C-20.3552499 54.2319976 -22.73865424 54.24716091 -25.12206841 54.26036072 C-28.89140702 54.28136318 -32.66065915 54.30838837 -36.4299469 54.33703613 C-44.43243243 54.39677298 -52.43495549 54.44895467 -60.4375 54.5 C-69.70528749 54.55913442 -78.97302901 54.62147686 -88.24073982 54.69187927 C-91.95885479 54.71848354 -95.67697398 54.73928091 -99.39512634 54.7598877 C-101.67023932 54.77648972 -103.94535034 54.79336148 -106.22045898 54.81054688 C-107.77676781 54.8168235 -107.77676781 54.8168235 -109.36451721 54.82322693 C-110.3164798 54.83157059 -111.26844238 54.83991425 -112.24925232 54.84851074 C-113.07496955 54.85366447 -113.90068678 54.85881821 -114.75142574 54.86412811 C-116.99122693 54.99946988 -118.8829097 55.25282815 -121 56 C-122.90726866 59.51338964 -123.37772168 63.08776326 -124 67 C-123.04199997 66.99555878 -122.08399994 66.99111755 -121.0969696 66.98654175 C-112.07692254 66.94603108 -103.05689388 66.91603265 -94.03677654 66.89637566 C-89.39923504 66.88593015 -84.76176687 66.87175697 -80.12426758 66.84912109 C-75.65038645 66.82742005 -71.17657594 66.81543715 -66.70264626 66.81024551 C-64.99417827 66.80654483 -63.28571422 66.79931848 -61.57727623 66.78853989 C-59.18774379 66.77406129 -56.79850466 66.77202052 -54.40893555 66.77294922 C-53.69971451 66.76575867 -52.99049347 66.75856812 -52.25978088 66.75115967 C-48.60393109 66.76657519 -47.13277433 66.91148378 -44 69 C-43.61904907 71.34629822 -43.61904907 71.34629822 -43.61181641 74.32006836 C-43.60235992 75.43139633 -43.59290344 76.5427243 -43.5831604 77.68772888 C-43.59226944 79.49552574 -43.59226944 79.49552574 -43.6015625 81.33984375 C-43.59725723 83.18939415 -43.59725723 83.18939415 -43.59286499 85.0763092 C-43.59029562 88.35834471 -43.60239838 91.63995684 -43.61914062 94.92193604 C-43.62498987 96.93401682 -43.61916825 98.94570456 -43.60888672 100.95776367 C-43.59038702 104.81447677 -43.59259199 108.67060663 -43.6015625 112.52734375 C-43.59548981 113.73051743 -43.58941711 114.9336911 -43.5831604 116.17332458 C-43.59734512 117.84504478 -43.59734512 117.84504478 -43.61181641 119.55053711 C-43.61420319 120.53267685 -43.61658997 121.51481659 -43.61904907 122.52671814 C-44.08197682 125.53222548 -44.5684183 126.21599397 -47 128 C-49.78424931 128.37473011 -49.78424931 128.37473011 -53.23170471 128.3742218 C-54.53713226 128.38123611 -55.84255981 128.38825043 -57.18754578 128.39547729 C-58.63748322 128.38804935 -60.08741914 128.38031819 -61.53735352 128.37231445 C-63.06162769 128.37474194 -64.58590028 128.37846083 -66.11016846 128.38337708 C-70.25263974 128.39279493 -74.39487512 128.38335365 -78.537328 128.37004495 C-82.86724724 128.3587444 -87.19715462 128.36283682 -91.52708435 128.36479187 C-98.79796208 128.36567519 -106.06874663 128.35458566 -113.33959961 128.33618164 C-121.75399633 128.31500547 -130.1682566 128.31150559 -138.58267456 128.3177436 C-146.66808477 128.32343151 -154.75344677 128.31779889 -162.83885002 128.30657005 C-166.28419826 128.30191726 -169.72951709 128.30105313 -173.17486763 128.3031559 C-177.22878256 128.30503488 -181.28255793 128.29696516 -185.33644104 128.2810955 C-186.82721314 128.27684096 -188.31799936 128.27600992 -189.80877495 128.27878571 C-191.83761604 128.28199115 -193.86646532 128.27173101 -195.89527893 128.26069641 C-197.03256219 128.25864354 -198.16984545 128.25659067 -199.34159184 128.25447559 C-202 128 -202 128 -204 126 C-204.24050903 123.55758667 -204.24050903 123.55758667 -204.22705078 120.44873047 C-204.22689972 119.28767792 -204.22674866 118.12662537 -204.22659302 116.9303894 C-204.21627045 115.67203278 -204.20594788 114.41367615 -204.1953125 113.1171875 C-204.1924826 111.83264679 -204.18965271 110.54810608 -204.18673706 109.22463989 C-204.17909809 105.80837233 -204.15944752 102.39227463 -204.1373291 98.97607422 C-204.11687624 95.49058327 -204.10773655 92.0050649 -204.09765625 88.51953125 C-204.07620175 81.67961769 -204.04206271 74.839817 -204 68 C-201.03592441 66.51796221 -198.37920835 66.88079174 -195.07177734 66.88647461 C-194.00332329 66.88625557 -194.00332329 66.88625557 -192.9132843 66.8860321 C-190.55413794 66.88672989 -188.19507011 66.89451603 -185.8359375 66.90234375 C-184.20211836 66.9042084 -182.56829866 66.90563208 -180.93447876 66.90663147 C-176.6305182 66.91045291 -172.32659129 66.92028002 -168.02264404 66.93133545 C-163.63228816 66.94155758 -159.24192685 66.94613081 -154.8515625 66.95117188 C-146.23435954 66.96190261 -137.61718396 66.97897457 -129 67 C-129.01957764 66.38946777 -129.03915527 65.77893555 -129.05932617 65.14990234 C-129.08216675 63.94261475 -129.08216675 63.94261475 -129.10546875 62.7109375 C-129.12504639 61.91478027 -129.14462402 61.11862305 -129.16479492 60.29833984 C-128.90423515 56.66439962 -127.36338311 54.68275921 -125 52 C-118.70090725 47.19279764 -111.22096227 47.86530013 -103.66772461 47.91821289 C-102.64100143 47.92127945 -101.61427826 47.92434601 -100.55644226 47.92750549 C-98.3335129 47.93464343 -96.11058986 47.94402444 -93.88767815 47.95540047 C-90.36990312 47.97281686 -86.85217367 47.98309785 -83.33436584 47.99131775 C-73.33476452 48.01575228 -63.33522486 48.05140485 -53.33569336 48.09594727 C-47.21448228 48.12271573 -41.09330645 48.13976696 -34.97204781 48.15081596 C-32.64002743 48.15702653 -30.30801398 48.1670328 -27.97602654 48.18089485 C-24.71826562 48.20009261 -21.46069069 48.20700441 -18.20288086 48.21118164 C-16.75721741 48.22432404 -16.75721741 48.22432404 -15.28234863 48.23773193 C-9.6324384 48.22945375 -5.20039989 48.20039989 -1 44 C-0.67043065 42.02239739 -0.67043065 42.02239739 -0.68115234 39.73388672 C-0.66128265 38.85312469 -0.64141296 37.97236267 -0.62094116 37.06491089 C-0.60938995 36.11278717 -0.59783875 35.16066345 -0.5859375 34.1796875 C-0.56657135 33.20589142 -0.5472052 32.23209534 -0.5272522 31.22879028 C-0.46735442 28.11094997 -0.42103029 24.99307294 -0.375 21.875 C-0.33682961 19.76430659 -0.29777844 17.65362892 -0.2578125 15.54296875 C-0.16164473 10.36211856 -0.07662736 5.18117403 0 0 Z " fill="#354356" transform="translate(416,241)"/>
<path d="M0 0 C47.85 0 95.7 0 145 0 C145 0.66 145 1.32 145 2 C145.99 2 146.98 2 148 2 C150.51876242 10.84689281 149.64827973 17.275804 149 27 C98.51 27 48.02 27 -4 27 C-4 20.07 -4 13.14 -4 6 C-3.01 5.67 -2.02 5.34 -1 5 C-0.67 3.35 -0.34 1.7 0 0 Z " fill="#072F3E" transform="translate(346,53)"/>
<path d="M0 0 C43.23 0 86.46 0 131 0 C131 9.9 131 19.8 131 30 C87.77 30 44.54 30 0 30 C0 20.1 0 10.2 0 0 Z " fill="#BFC4C8" transform="translate(193,193)"/>
<path d="M0 0 C0.598125 0.226875 1.19625 0.45375 1.8125 0.6875 C0.8225 2.1725 0.8225 2.1725 -0.1875 3.6875 C12.6825 3.6875 25.5525 3.6875 38.8125 3.6875 C38.8125 19.1975 38.8125 34.7075 38.8125 50.6875 C38.4825 50.6875 38.1525 50.6875 37.8125 50.6875 C37.8125 35.5075 37.8125 20.3275 37.8125 4.6875 C31.769375 4.749375 25.72625 4.81125 19.5 4.875 C17.59565186 4.88168701 15.69130371 4.88837402 13.72924805 4.89526367 C12.21920274 4.92170861 10.70918793 4.94998553 9.19921875 4.98046875 C8.41567017 4.97648071 7.63212158 4.97249268 6.8248291 4.96838379 C4.29088309 4.97874491 4.29088309 4.97874491 0.8125 5.6875 C-2.30126506 9.53469914 -2.55508531 12.64467264 -2.52807617 17.49731445 C-2.52851425 18.16128738 -2.52895233 18.82526031 -2.52940369 19.50935364 C-2.52732423 21.69013529 -2.50403461 23.87013496 -2.48046875 26.05078125 C-2.47486976 27.5682076 -2.47060109 29.0856394 -2.46760559 30.60307312 C-2.45618058 34.586549 -2.42673395 38.56969394 -2.39349365 42.55303955 C-2.36274197 46.62190271 -2.34908939 50.69081962 -2.33398438 54.75976562 C-2.30186167 62.73582853 -2.25069409 70.71162303 -2.1875 78.6875 C1.31103717 80.26077118 4.07753188 80.9448561 7.90649414 80.99047852 C8.89424332 81.00712051 9.88199249 81.02376251 10.89967346 81.04090881 C11.95500778 81.04932297 13.0103421 81.05773712 14.09765625 81.06640625 C15.73751747 81.09189796 15.73751747 81.09189796 17.4105072 81.11790466 C20.89861298 81.1709644 24.3867077 81.21129729 27.875 81.25 C31.36680226 81.29396889 34.85851386 81.34070571 38.35020447 81.39280701 C40.52149132 81.4246875 42.69285799 81.45160122 44.86427307 81.47303772 C45.84887009 81.48652756 46.8334671 81.5000174 47.84790039 81.51391602 C49.14432213 81.52818382 49.14432213 81.52818382 50.4669342 81.54273987 C54.02545474 81.76235933 56.1587647 82.14912975 58.9375 84.4375 C63.49462938 89.90605526 63.07935875 95.44316775 63.0078125 102.23828125 C63.0049826 103.25222458 63.00215271 104.26616791 62.99923706 105.31083679 C62.98806625 108.54067927 62.96296711 111.77024171 62.9375 115 C62.9274662 117.19335536 62.91834105 119.38671508 62.91015625 121.58007812 C62.88813707 126.94931386 62.85469023 132.31838692 62.8125 137.6875 C63.92326904 137.6678418 65.03403809 137.64818359 66.1784668 137.62792969 C69.74424823 137.68638119 70.9079207 137.82492312 73.625 139.9375 C74.18832031 140.35515625 74.75164062 140.7728125 75.33203125 141.203125 C80.2897115 146.1738862 79.18031318 152.91186677 79.1875 159.4375 C79.21199219 160.5925 79.23648438 161.7475 79.26171875 162.9375 C79.28758446 170.49028617 78.79803828 176.52351458 73.3293457 182.23706055 C68.17158931 186.76973099 63.59114004 187.15796504 56.9609375 187.09375 C50.48928678 186.25869829 46.48765101 182.8522198 42.59375 177.8203125 C39.64346259 172.34998793 40.23468757 166.17167397 40.3125 160.125 C40.29703125 158.91908203 40.2815625 157.71316406 40.265625 156.47070312 C40.31428361 145.45560937 40.31428361 145.45560937 44.8125 140.6875 C49.01653055 137.94574095 51.88222187 137.56389971 56.8125 137.6875 C56.69481023 131.35191544 56.56998057 125.0165004 56.44018555 118.68115234 C56.39687309 116.52591135 56.35519537 114.37063686 56.31518555 112.21533203 C56.25739382 109.11741033 56.19372477 106.01965666 56.12890625 102.921875 C56.11219376 101.95820007 56.09548126 100.99452515 56.07826233 100.00164795 C56.0483445 98.65070038 56.0483445 98.65070038 56.01782227 97.27246094 C56.00227798 96.48192322 55.9867337 95.6913855 55.97071838 94.87689209 C55.81392547 92.70722541 55.40634319 90.77613467 54.8125 88.6875 C48.49563411 87.75756597 42.34030012 87.53916365 35.9609375 87.51171875 C33.87238555 87.48853926 31.78384382 87.46442271 29.6953125 87.43945312 C26.43221967 87.40426291 23.16951019 87.37492638 19.90625 87.36157227 C16.73652169 87.34609508 13.56787849 87.3059164 10.3984375 87.26171875 C8.94043228 87.26458138 8.94043228 87.26458138 7.45297241 87.26750183 C1.78047864 87.16523369 -1.78791505 86.64189405 -6.1875 82.6875 C-8.54293239 79.14934026 -8.44659156 75.97568493 -8.4621582 71.79516602 C-8.46726913 71.11010986 -8.47238007 70.42505371 -8.47764587 69.71923828 C-8.49151972 67.4598715 -8.49058683 65.20081051 -8.48828125 62.94140625 C-8.49216938 61.36726264 -8.4965043 59.79312009 -8.50126648 58.21897888 C-8.50872391 54.92126055 -8.50844088 51.6236493 -8.50317383 48.32592773 C-8.49737958 44.10466791 -8.51431111 39.88384692 -8.5375185 35.66265965 C-8.55226639 32.41209867 -8.55312612 29.16164312 -8.55000877 25.91105461 C-8.55052145 24.35496082 -8.55574915 22.79886104 -8.56582069 21.24279976 C-8.57818876 19.06465446 -8.57139211 16.88736068 -8.55981445 14.70922852 C-8.56044388 13.47108902 -8.5610733 12.23294952 -8.5617218 10.95729065 C-8.06767946 6.64055914 -6.33590038 4.18541354 -3.75 0.8125 C-2.1875 -0.3125 -2.1875 -0.3125 0 0 Z " fill="#374457" transform="translate(112.1875,182.3125)"/>
<path d="M0 0 C54.78 0 109.56 0 166 0 C166 4.95 166 9.9 166 15 C111.22 15 56.44 15 0 15 C0 10.05 0 5.1 0 0 Z " fill="#4F9AD9" transform="translate(177,126)"/>
<path d="M0 0 C3.63 0 7.26 0 11 0 C11 1.32 11 2.64 11 4 C11.66 4 12.32 4 13 4 C13 3.34 13 2.68 13 2 C13.66 2 14.32 2 15 2 C15 1.34 15 0.68 15 0 C18.3 0 21.6 0 25 0 C25 3 25 6 25 9 C25.18557375 10.95851681 25.37338501 12.91682197 25.5625 14.875 C26.03983755 20.78868185 25.82353221 26.4221602 25.25390625 32.3203125 C24.95283516 35.04915556 24.95283516 35.04915556 25 38 C25 41.66666667 25 45.33333333 25 49 C20.71 49 16.42 49 12 49 C11.67 48.01 11.34 47.02 11 46 C9.515 45.505 9.515 45.505 8 45 C8 46.32 8 47.64 8 49 C4.37 49 0.74 49 -3 49 C-3.495 45.04 -3.495 45.04 -4 41 C-4.33 41 -4.66 41 -5 41 C-5.33 43.64 -5.66 46.28 -6 49 C-32.73 49 -59.46 49 -87 49 C-87 45.7 -87 42.4 -87 39 C-62.25 38.67 -37.5 38.34 -12 38 C-12 37.34 -12 36.68 -12 36 C-13.485 35.505 -13.485 35.505 -15 35 C-15 31.7 -15 28.4 -15 25 C-11.04 25 -7.08 25 -3 25 C-2.505 27.97 -2.505 27.97 -2 31 C-1.34 31 -0.68 31 0 31 C0 28.69 0 26.38 0 24 C2.97 24 5.94 24 9 24 C9.495 22.515 9.495 22.515 10 21 C6.7 20.67 3.4 20.34 0 20 C-0.74464946 13.12631267 -1.18225237 6.83079148 0 0 Z " fill="#3B4D61" transform="translate(337,314)"/>
<path d="M0 0 C0.66 0 1.32 0 2 0 C2 0.99 2 1.98 2 3 C4.97 3 7.94 3 11 3 C11.495 5.475 11.495 5.475 12 8 C8.7 8 5.4 8 2 8 C2 11.3 2 14.6 2 18 C5.3 18 8.6 18 12 18 C12.33 16.68 12.66 15.36 13 14 C13.99 14 14.98 14 16 14 C16.10634766 14.93585938 16.10634766 14.93585938 16.21484375 15.890625 C16.80004532 18.19229321 16.80004532 18.19229321 19.06640625 19.046875 C19.89011719 19.27890625 20.71382813 19.5109375 21.5625 19.75 C22.38878906 19.99234375 23.21507812 20.2346875 24.06640625 20.484375 C24.70449219 20.65453125 25.34257812 20.8246875 26 21 C25.67 21.66 25.34 22.32 25 23 C22.03 23 19.06 23 16 23 C16 26.3 16 29.6 16 33 C20.95 32.505 20.95 32.505 26 32 C26.33 28.7 26.66 25.4 27 22 C28.485 22.495 28.485 22.495 30 23 C30.495 27.455 30.495 27.455 31 32 C34.3 32.33 37.6 32.66 41 33 C41 31.68 41 30.36 41 29 C42.32 28.67 43.64 28.34 45 28 C45 29.65 45 31.3 45 33 C46.21236328 32.85691406 46.21236328 32.85691406 47.44921875 32.7109375 C48.51785156 32.60007812 49.58648437 32.48921875 50.6875 32.375 C51.74324219 32.25898438 52.79898438 32.14296875 53.88671875 32.0234375 C57.13716346 31.9989674 59.10230796 32.59147437 62 34 C62 34.66 62 35.32 62 36 C63.98 36.495 63.98 36.495 66 37 C39.93 37 13.86 37 -13 37 C-13 40.3 -13 43.6 -13 47 C13.73 47 40.46 47 68 47 C68 44.03 68 41.06 68 38 C68.99 38 69.98 38 71 38 C71 40.97 71 43.94 71 47 C74.63 47 78.26 47 82 47 C82 45.68 82 44.36 82 43 C83.32 43.33 84.64 43.66 86 44 C86 44.99 86 45.98 86 47 C86.99 47 87.98 47 89 47 C88.34 48.65 87.68 50.3 87 52 C43.77 52 0.54 52 -44 52 C-43.01 51.01 -42.02 50.02 -41 49 C-41.33 48.34 -41.66 47.68 -42 47 C-33.75 47 -25.5 47 -17 47 C-17 43.7 -17 40.4 -17 37 C-20.63 37 -24.26 37 -28 37 C-27.01 36.505 -27.01 36.505 -26 36 C-26 35.34 -26 34.68 -26 34 C-26.66 33.67 -27.32 33.34 -28 33 C-28.4140625 30.71484375 -28.4140625 30.71484375 -28.625 27.9375 C-28.69976562 27.01839844 -28.77453125 26.09929687 -28.8515625 25.15234375 C-28.90054688 24.44207031 -28.94953125 23.73179687 -29 23 C-29.66 23.33 -30.32 23.66 -31 24 C-32.87862875 23.91255632 -34.75455181 23.75824458 -36.625 23.5625 C-37.62789062 23.46066406 -38.63078125 23.35882813 -39.6640625 23.25390625 C-40.43492187 23.17011719 -41.20578125 23.08632813 -42 23 C-41.67 21.35 -41.34 19.7 -41 18 C-37.7 18 -34.4 18 -31 18 C-31 16.68 -31 15.36 -31 14 C-30.01 14 -29.02 14 -28 14 C-28 15.32 -28 16.64 -28 18 C-24.37 18 -20.74 18 -17 18 C-17 15.03 -17 12.06 -17 9 C-15.68 8.34 -14.36 7.68 -13 7 C-13 10.63 -13 14.26 -13 18 C-9.37 18 -5.74 18 -2 18 C-2 14.7 -2 11.4 -2 8 C-5.3 8 -8.6 8 -12 8 C-11.34 7.67 -10.68 7.34 -10 7 C-9.34786708 4.97536745 -9.34786708 4.97536745 -9 3 C-7.329375 2.814375 -7.329375 2.814375 -5.625 2.625 C-1.96896323 2.3534187 -1.96896323 2.3534187 0 0 Z " fill="#293749" transform="translate(263,316)"/>
<path d="M0 0 C1.64574566 -0.02688151 3.29161413 -0.04634123 4.9375 -0.0625 C5.85402344 -0.07410156 6.77054687 -0.08570313 7.71484375 -0.09765625 C10 0 10 0 11 1 C11.99 0.67 12.98 0.34 14 0 C15.89470816 -0.0685495 17.7916834 -0.08480372 19.6875 -0.0625 C20.68136719 -0.05347656 21.67523438 -0.04445313 22.69921875 -0.03515625 C23.83810547 -0.01775391 23.83810547 -0.01775391 25 0 C25.33 0.99 25.66 1.98 26 3 C26.66 3 27.32 3 28 3 C28.33 2.01 28.66 1.02 29 0 C32.3 0 35.6 0 39 0 C39 0.99 39 1.98 39 3 C39.66 3 40.32 3 41 3 C41.33 2.01 41.66 1.02 42 0 C43.93681161 -0.08107583 45.8745934 -0.13922475 47.8125 -0.1875 C48.89144531 -0.22230469 49.97039062 -0.25710938 51.08203125 -0.29296875 C54 0 54 0 55.88671875 1.51171875 C56.25410156 2.00285156 56.62148438 2.49398438 57 3 C57 2.01 57 1.02 57 0 C60.63 0 64.26 0 68 0 C68 1.65 68 3.3 68 5 C64.7 5 61.4 5 58 5 C57.9175 5.78375 57.835 6.5675 57.75 7.375 C56.90642495 11.45227942 55.39640323 14.87126797 53.64453125 18.6328125 C52.82846476 21.63000214 53.56790818 22.34113419 55 25 C54.9691309 28.39560152 54.44435581 31.62289588 54 35 C50.37 35 46.74 35 43 35 C43 33.35 43 31.7 43 30 C41.68 30.33 40.36 30.66 39 31 C39 32.32 39 33.64 39 35 C37.35425434 35.02688151 35.70838587 35.04634123 34.0625 35.0625 C32.68771484 35.07990234 32.68771484 35.07990234 31.28515625 35.09765625 C29 35 29 35 28 34 C27.71898054 31.68047431 27.55217375 29.36114486 27.37890625 27.03125 C27.19134766 26.02578125 27.19134766 26.02578125 27 25 C26.34 24.67 25.68 24.34 25 24 C25.01160156 24.71027344 25.02320313 25.42054688 25.03515625 26.15234375 C25.04417969 27.07144531 25.05320312 27.99054688 25.0625 28.9375 C25.07410156 29.85402344 25.08570313 30.77054687 25.09765625 31.71484375 C25 34 25 34 24 35 C20.66381769 35.14257189 17.34024394 35.04228157 14 35 C14 31.7 14 28.4 14 25 C16.97 24.67 19.94 24.34 23 24 C23 23.67 23 23.34 23 23 C20.03 22.01 17.06 21.02 14 20 C14 18.68 14 17.36 14 16 C13.67 16.66 13.34 17.32 13 18 C12.01 18 11.02 18 10 18 C10 18.66 10 19.32 10 20 C6.7 20 3.4 20 0 20 C0 16.7 0 13.4 0 10 C4.455 9.505 4.455 9.505 9 9 C9 7.68 9 6.36 9 5 C6.03 5 3.06 5 0 5 C0 3.35 0 1.7 0 0 Z " fill="#314156" transform="translate(265,314)"/>
<path d="M0 0 C19.14 0 38.28 0 58 0 C58 8.58 58 17.16 58 26 C38.86 26 19.72 26 0 26 C0 17.42 0 8.84 0 0 Z " fill="#BFC4C8" transform="translate(285,148)"/>
<path d="M0 0 C0.598125 0.226875 1.19625 0.45375 1.8125 0.6875 C0.8225 2.1725 0.8225 2.1725 -0.1875 3.6875 C12.6825 3.6875 25.5525 3.6875 38.8125 3.6875 C38.8125 19.1975 38.8125 34.7075 38.8125 50.6875 C38.4825 50.6875 38.1525 50.6875 37.8125 50.6875 C37.8125 35.5075 37.8125 20.3275 37.8125 4.6875 C31.769375 4.749375 25.72625 4.81125 19.5 4.875 C17.59565186 4.88168701 15.69130371 4.88837402 13.72924805 4.89526367 C12.21920274 4.92170861 10.70918793 4.94998553 9.19921875 4.98046875 C8.41567017 4.97648071 7.63212158 4.97249268 6.8248291 4.96838379 C4.29088309 4.97874491 4.29088309 4.97874491 0.8125 5.6875 C-2.30126506 9.53469914 -2.55508531 12.64467264 -2.52807617 17.49731445 C-2.52851425 18.16128738 -2.52895233 18.82526031 -2.52940369 19.50935364 C-2.52732423 21.69013529 -2.50403461 23.87013496 -2.48046875 26.05078125 C-2.47486976 27.5682076 -2.47060109 29.0856394 -2.46760559 30.60307312 C-2.45618058 34.586549 -2.42673395 38.56969394 -2.39349365 42.55303955 C-2.36274197 46.62190271 -2.34908939 50.69081962 -2.33398438 54.75976562 C-2.30186167 62.73582853 -2.25069409 70.71162303 -2.1875 78.6875 C1.31103717 80.26077118 4.07753188 80.9448561 7.90649414 80.99047852 C8.89424332 81.00712051 9.88199249 81.02376251 10.89967346 81.04090881 C11.95500778 81.04932297 13.0103421 81.05773712 14.09765625 81.06640625 C15.73751747 81.09189796 15.73751747 81.09189796 17.4105072 81.11790466 C20.89861298 81.1709644 24.3867077 81.21129729 27.875 81.25 C31.36680226 81.29396889 34.85851386 81.34070571 38.35020447 81.39280701 C40.52149132 81.4246875 42.69285799 81.45160122 44.86427307 81.47303772 C45.84887009 81.48652756 46.8334671 81.5000174 47.84790039 81.51391602 C49.14432213 81.52818382 49.14432213 81.52818382 50.4669342 81.54273987 C54.02545474 81.76235933 56.1587647 82.14912975 58.9375 84.4375 C63.49462938 89.90605526 63.07935875 95.44316775 63.0078125 102.23828125 C63.0049826 103.25222458 63.00215271 104.26616791 62.99923706 105.31083679 C62.98806625 108.54067927 62.96296711 111.77024171 62.9375 115 C62.9274662 117.19335536 62.91834105 119.38671508 62.91015625 121.58007812 C62.88813707 126.94931386 62.85469023 132.31838692 62.8125 137.6875 C63.92625 137.64625 65.04 137.605 66.1875 137.5625 C69.8125 137.6875 69.8125 137.6875 71.8125 139.6875 C68.8425 139.6875 65.8725 139.6875 62.8125 139.6875 C63.3075 140.615625 63.3075 140.615625 63.8125 141.5625 C66.25958699 149.20964685 64.632167 157.05139742 62.8125 164.6875 C60.8325 164.6875 58.8525 164.6875 56.8125 164.6875 C55.70904494 156.41158707 54.77041177 147.85585293 56.8125 139.6875 C53.8425 139.6875 50.8725 139.6875 47.8125 139.6875 C51.2477048 137.39736347 52.797831 137.50907027 56.8125 137.6875 C56.69481023 131.35191544 56.56998057 125.0165004 56.44018555 118.68115234 C56.39687309 116.52591135 56.35519537 114.37063686 56.31518555 112.21533203 C56.25739382 109.11741033 56.19372477 106.01965666 56.12890625 102.921875 C56.11219376 101.95820007 56.09548126 100.99452515 56.07826233 100.00164795 C56.0483445 98.65070038 56.0483445 98.65070038 56.01782227 97.27246094 C56.00227798 96.48192322 55.9867337 95.6913855 55.97071838 94.87689209 C55.81392547 92.70722541 55.40634319 90.77613467 54.8125 88.6875 C48.49563411 87.75756597 42.34030012 87.53916365 35.9609375 87.51171875 C33.87238555 87.48853926 31.78384382 87.46442271 29.6953125 87.43945312 C26.43221967 87.40426291 23.16951019 87.37492638 19.90625 87.36157227 C16.73652169 87.34609508 13.56787849 87.3059164 10.3984375 87.26171875 C8.94043228 87.26458138 8.94043228 87.26458138 7.45297241 87.26750183 C1.78047864 87.16523369 -1.78791505 86.64189405 -6.1875 82.6875 C-8.54293239 79.14934026 -8.44659156 75.97568493 -8.4621582 71.79516602 C-8.46726913 71.11010986 -8.47238007 70.42505371 -8.47764587 69.71923828 C-8.49151972 67.4598715 -8.49058683 65.20081051 -8.48828125 62.94140625 C-8.49216938 61.36726264 -8.4965043 59.79312009 -8.50126648 58.21897888 C-8.50872391 54.92126055 -8.50844088 51.6236493 -8.50317383 48.32592773 C-8.49737958 44.10466791 -8.51431111 39.88384692 -8.5375185 35.66265965 C-8.55226639 32.41209867 -8.55312612 29.16164312 -8.55000877 25.91105461 C-8.55052145 24.35496082 -8.55574915 22.79886104 -8.56582069 21.24279976 C-8.57818876 19.06465446 -8.57139211 16.88736068 -8.55981445 14.70922852 C-8.56044388 13.47108902 -8.5610733 12.23294952 -8.5617218 10.95729065 C-8.06767946 6.64055914 -6.33590038 4.18541354 -3.75 0.8125 C-2.1875 -0.3125 -2.1875 -0.3125 0 0 Z " fill="#516070" transform="translate(112.1875,182.3125)"/>
<path d="M0 0 C2.97 0.33 5.94 0.66 9 1 C9 3.97 9 6.94 9 10 C12.63 10 16.26 10 20 10 C20 9.01 20 8.02 20 7 C20.99 7 21.98 7 23 7 C23 7.99 23 8.98 23 10 C28.445 10.495 28.445 10.495 34 11 C34 11.99 34 12.98 34 14 C34.66 14.33 35.32 14.66 36 15 C35.67 15.33 35.34 15.66 35 16 C34.76807135 17.51469448 34.58784762 19.03754562 34.4375 20.5625 C34.293125 22.026875 34.14875 23.49125 34 25 C30.37 25 26.74 25 23 25 C23 23.68 23 22.36 23 21 C22.01 21 21.02 21 20 21 C20 22.32 20 23.64 20 25 C15.05 25.495 15.05 25.495 10 26 C9.67 27.32 9.34 28.64 9 30 C10.95825873 30.02694851 12.91662226 30.04637218 14.875 30.0625 C15.96554688 30.07410156 17.05609375 30.08570313 18.1796875 30.09765625 C20.95177546 30.19744303 20.95177546 30.19744303 23 29 C23 32.63 23 36.26 23 40 C24.485 40.495 24.485 40.495 26 41 C25.67 41.66 25.34 42.32 25 43 C27.97 43.33 30.94 43.66 34 44 C34 47.3 34 50.6 34 54 C32.43507812 54.04898438 30.87015625 54.09796875 29.2578125 54.1484375 C27.21352322 54.22345729 25.16925328 54.29900545 23.125 54.375 C21.57619141 54.42140625 21.57619141 54.42140625 19.99609375 54.46875 C18.51689453 54.52675781 18.51689453 54.52675781 17.0078125 54.5859375 C16.09660645 54.6173584 15.18540039 54.6487793 14.24658203 54.68115234 C11.80068814 54.79882511 11.80068814 54.79882511 10 57 C6.55892734 59.29404844 5.03160191 59.26293056 1 59 C0 58 0 58 -0.12025452 55.67784119 C-0.11803391 54.64969803 -0.11581329 53.62155487 -0.11352539 52.56225586 C-0.11344986 51.40112778 -0.11337433 50.23999969 -0.11329651 49.04368591 C-0.10813522 47.780168 -0.10297394 46.51665009 -0.09765625 45.21484375 C-0.0962413 43.92888809 -0.09482635 42.64293243 -0.09336853 41.31800842 C-0.08954418 37.89356557 -0.07971462 34.46916491 -0.06866455 31.04473877 C-0.05844864 27.55261811 -0.05387053 24.06049066 -0.04882812 20.56835938 C-0.03809227 13.71222222 -0.02101684 6.85611313 0 0 Z " fill="#313D4D" transform="translate(212,309)"/>
<path d="M0 0 C11.55 0 23.1 0 35 0 C35 11.55 35 23.1 35 35 C23.45 35 11.9 35 0 35 C0 23.45 0 11.9 0 0 Z " fill="#B8C8CB" transform="translate(448,116)"/>
<path d="M0 0 C1.32 0 2.64 0 4 0 C4.12686439 6.74418027 4.21437811 13.48805244 4.2746582 20.2331543 C4.29978928 22.52721658 4.33389969 24.8211989 4.37719727 27.11499023 C4.43790832 30.41410049 4.46622437 33.71215146 4.48828125 37.01171875 C4.51408768 38.03585373 4.5398941 39.05998871 4.56648254 40.11515808 C4.56928394 47.24089543 4.56928394 47.24089543 1.65698242 51.12426758 C-1.87440344 53.61729685 -4.41082909 54.12518212 -8.62376404 54.15148926 C-9.5729068 54.15983292 -10.52204956 54.16817657 -11.49995422 54.17677307 C-13.05929939 54.1830497 -13.05929939 54.1830497 -14.65014648 54.18945312 C-15.74631287 54.19774643 -16.84247925 54.20603973 -17.97186279 54.21458435 C-20.3552499 54.2319976 -22.73865424 54.24716091 -25.12206841 54.26036072 C-28.89140702 54.28136318 -32.66065915 54.30838837 -36.4299469 54.33703613 C-44.43243243 54.39677298 -52.43495549 54.44895467 -60.4375 54.5 C-69.70528749 54.55913442 -78.97302901 54.62147686 -88.24073982 54.69187927 C-91.95885479 54.71848354 -95.67697398 54.73928091 -99.39512634 54.7598877 C-101.67023932 54.77648972 -103.94535034 54.79336148 -106.22045898 54.81054688 C-107.77676781 54.8168235 -107.77676781 54.8168235 -109.36451721 54.82322693 C-110.3164798 54.83157059 -111.26844238 54.83991425 -112.24925232 54.84851074 C-113.07496955 54.85366447 -113.90068678 54.85881821 -114.75142574 54.86412811 C-116.99122693 54.99946988 -118.8829097 55.25282815 -121 56 C-122.89829296 59.49685546 -123.45400145 63.0870104 -124 67 C-125.66666667 67 -127.33333333 67 -129 67 C-129.37695208 62.28809898 -129.46314703 58.92629407 -127.3125 54.625 C-123.29988523 50.07013999 -119.93285677 48.73424553 -114 48 C-110.5550112 47.87305566 -107.11457928 47.89406661 -103.66772461 47.91821289 C-102.64100143 47.92127945 -101.61427826 47.92434601 -100.55644226 47.92750549 C-98.3335129 47.93464343 -96.11058986 47.94402444 -93.88767815 47.95540047 C-90.36990312 47.97281686 -86.85217367 47.98309785 -83.33436584 47.99131775 C-73.33476452 48.01575228 -63.33522486 48.05140485 -53.33569336 48.09594727 C-47.21448228 48.12271573 -41.09330645 48.13976696 -34.97204781 48.15081596 C-32.64002743 48.15702653 -30.30801398 48.1670328 -27.97602654 48.18089485 C-24.71826562 48.20009261 -21.46069069 48.20700441 -18.20288086 48.21118164 C-16.75721741 48.22432404 -16.75721741 48.22432404 -15.28234863 48.23773193 C-9.6324384 48.22945375 -5.20039989 48.20039989 -1 44 C-0.67043065 42.02239739 -0.67043065 42.02239739 -0.68115234 39.73388672 C-0.66128265 38.85312469 -0.64141296 37.97236267 -0.62094116 37.06491089 C-0.60938995 36.11278717 -0.59783875 35.16066345 -0.5859375 34.1796875 C-0.56657135 33.20589142 -0.5472052 32.23209534 -0.5272522 31.22879028 C-0.46735442 28.11094997 -0.42103029 24.99307294 -0.375 21.875 C-0.33682961 19.76430659 -0.29777844 17.65362892 -0.2578125 15.54296875 C-0.16164473 10.36211856 -0.07662736 5.18117403 0 0 Z " fill="#556270" transform="translate(416,241)"/>
<path d="M0 0 C36.63 0 73.26 0 111 0 C111 2.31 111 4.62 111 7 C74.37 7 37.74 7 0 7 C0 4.69 0 2.38 0 0 Z " fill="#E57D7D" transform="translate(203,182)"/>
<path d="M0 0 C0.33 0.66 0.66 1.32 1 2 C1.66 2 2.32 2 3 2 C3.33 1.34 3.66 0.68 4 0 C4 3.63 4 7.26 4 11 C30.73 11 57.46 11 85 11 C85 8.03 85 5.06 85 2 C85.99 2 86.98 2 88 2 C88 4.97 88 7.94 88 11 C91.63 11 95.26 11 99 11 C99 9.68 99 8.36 99 7 C100.98 7.495 100.98 7.495 103 8 C103 8.99 103 9.98 103 11 C103.99 11 104.98 11 106 11 C105.34 12.65 104.68 14.3 104 16 C60.77 16 17.54 16 -27 16 C-26.01 15.01 -25.02 14.02 -24 13 C-24.33 12.34 -24.66 11.68 -25 11 C-16.75 11 -8.5 11 0 11 C0 7.37 0 3.74 0 0 Z " fill="#293647" transform="translate(246,352)"/>
<path d="M0 0 C2.64 0 5.28 0 8 0 C8 0.66 8 1.32 8 2 C8.66 1.67 9.32 1.34 10 1 C12.88370333 0.92805131 15.74239664 0.90708292 18.625 0.9375 C19.82769531 0.94426758 19.82769531 0.94426758 21.0546875 0.95117188 C23.03649006 0.96296832 25.01825433 0.98090395 27 1 C27 1.99 27 2.98 27 4 C22.05 4.33 17.1 4.66 12 5 C22.89 5.495 22.89 5.495 34 6 C34 5.34 34 4.68 34 4 C32.35 4 30.7 4 29 4 C29 3.01 29 2.02 29 1 C31.97 1 34.94 1 38 1 C37.67 5.62 37.34 10.24 37 15 C17.695 14.505 17.695 14.505 -2 14 C-1.67 13.34 -1.34 12.68 -1 12 C4.94 11.67 10.88 11.34 17 11 C8.3387414 9.74018057 -0.27001243 9.90979347 -9 10 C-9 10.66 -9 11.32 -9 12 C-7.68 12 -6.36 12 -5 12 C-5 12.66 -5 13.32 -5 14 C-19.19 14 -33.38 14 -48 14 C-48 13.34 -48 12.68 -48 12 C-30.675 11.505 -30.675 11.505 -13 11 C-24.55 10.67 -36.1 10.34 -48 10 C-48 8.68 -48 7.36 -48 6 C-30.84 6 -13.68 6 4 6 C4 5.34 4 4.68 4 4 C-13.16 3.67 -30.32 3.34 -48 3 C-48 2.67 -48 2.34 -48 2 C-32.16 1.67 -16.32 1.34 0 1 C0 0.67 0 0.34 0 0 Z " fill="#BCD7E6" transform="translate(447,166)"/>
<path d="M0 0 C6.6 0 13.2 0 20 0 C20 11.55 20 23.1 20 35 C13.4 35 6.8 35 0 35 C0 23.45 0 11.9 0 0 Z " fill="#BACACE" transform="translate(369,168)"/>
<path d="M0 0 C42.24 0 84.48 0 128 0 C128 1.32 128 2.64 128 4 C85.76 4 43.52 4 0 4 C0 2.68 0 1.36 0 0 Z " fill="#B7C7CA" transform="translate(355,100)"/>
<path d="M0 0 C0.64709869 -0.00170885 1.29419739 -0.0034177 1.96090513 -0.00517833 C4.1089456 -0.00844803 6.25666712 0.00248825 8.40467834 0.01345825 C9.95248914 0.01402291 11.50030047 0.01370473 13.04811096 0.01257324 C17.23562673 0.01200087 21.42302725 0.02373643 25.61051631 0.03772116 C29.99205738 0.05024781 34.37360126 0.05140054 38.75515747 0.05377197 C47.04582769 0.05998106 55.33644499 0.07638414 63.62709194 0.09647095 C73.0684215 0.11884774 82.50975361 0.12982786 91.95110309 0.13986182 C111.36672911 0.16075087 130.78230591 0.19591574 150.19789124 0.24050903 C150.19789124 1.23050903 150.19789124 2.22050903 150.19789124 3.24050903 C96.07789124 3.24050903 41.95789124 3.24050903 -13.80210876 3.24050903 C-13.80210876 2.91050903 -13.80210876 2.58050903 -13.80210876 2.24050903 C-9.03584915 0.71373983 -5.05131008 -0.00808857 0 0 Z " fill="#E6F2F5" transform="translate(191.80210876464844,122.75949096679688)"/>
<path d="M0 0 C30.36 0 60.72 0 92 0 C92 1.65 92 3.3 92 5 C61.64 5 31.28 5 0 5 C0 3.35 0 1.7 0 0 Z " fill="#C3C6CB" transform="translate(177,162)"/>
<path d="M0 0 C36.63 0 73.26 0 111 0 C110.67 0.66 110.34 1.32 110 2 C110.99 2.99 110.99 2.99 112 4 C97.98769791 4.09344236 83.97544414 4.16371266 69.96289444 4.20724869 C63.45659851 4.22814165 56.95051157 4.25649108 50.44433594 4.30175781 C44.16792491 4.3451537 37.89171516 4.36912422 31.61516571 4.37950897 C29.21810486 4.38691153 26.82105527 4.40136659 24.4240799 4.42292023 C21.07186395 4.45187016 17.72048448 4.45595941 14.36816406 4.45410156 C13.37266541 4.46848267 12.37716675 4.48286377 11.35150146 4.49768066 C9.98016052 4.48943268 9.98016052 4.48943268 8.58111572 4.48101807 C7.78837376 4.48470524 6.99563179 4.48839241 6.17886734 4.49219131 C4 4 4 4 0 0 Z " fill="#F3DFE1" transform="translate(203,189)"/>
<path d="M0 0 C2.40346513 1.86936177 3.8552475 3.03390302 5.25 5.75 C5.79897239 10.61232692 5.7613954 12.76373745 3.5 17.125 C0.2720747 20.89091285 -1.25826939 21.61438813 -6.1875 22.0625 C-10.04333597 21.72426877 -11.75854728 21.15978135 -14.75 18.75 C-17.08772514 15.84799637 -17.71474659 14.02699106 -18.1875 10.3125 C-17.66606726 6.06654773 -16.48082959 4.01182423 -13.75 0.75 C-9.64041807 -2.36761388 -4.5513482 -2.06879464 0 0 Z " fill="#CCD8DA" transform="translate(471.75,123.25)"/>
<path d="M0 0 C2.97 0 5.94 0 9 0 C8.67 0.66 8.34 1.32 8 2 C7.01 2 6.02 2 5 2 C5 4.64 5 7.28 5 10 C4.01 10 3.02 10 2 10 C2 10.66 2 11.32 2 12 C55.46 12 108.92 12 164 12 C164.33 8.04 164.66 4.08 165 0 C165.33 0 165.66 0 166 0 C166 4.62 166 9.24 166 14 C111.22 14 56.44 14 0 14 C0 9.38 0 4.76 0 0 Z " fill="#5594C3" transform="translate(177,127)"/>
<path d="M0 0 C32.67 0 65.34 0 99 0 C99 1.32 99 2.64 99 4 C66.33 4 33.66 4 0 4 C0 2.68 0 1.36 0 0 Z " fill="#F3FDFC" transform="translate(357,65)"/>
<path d="M0 0 C30.36 0 60.72 0 92 0 C92 1.32 92 2.64 92 4 C61.64 4 31.28 4 0 4 C0 2.68 0 1.36 0 0 Z " fill="#C1C5C9" transform="translate(177,170)"/>
<path d="M0 0 C30.36 0 60.72 0 92 0 C92 1.32 92 2.64 92 4 C61.64 4 31.28 4 0 4 C0 2.68 0 1.36 0 0 Z " fill="#BEC3C7" transform="translate(177,155)"/>
<path d="M0 0 C30.36 0 60.72 0 92 0 C92 1.32 92 2.64 92 4 C61.64 4 31.28 4 0 4 C0 2.68 0 1.36 0 0 Z " fill="#C2C6C9" transform="translate(177,148)"/>
<path d="M0 0 C54.78 0 109.56 0 166 0 C166 0.66 166 1.32 166 2 C111.55 2.33 57.1 2.66 1 3 C0.67 2.01 0.34 1.02 0 0 Z " fill="#D4EEFC" transform="translate(177,141)"/>
<path d="M0 0 C26.73 0 53.46 0 81 0 C81 1.32 81 2.64 81 4 C54.27 4 27.54 4 0 4 C0 2.68 0 1.36 0 0 Z " fill="#DF7F7F" transform="translate(402,91)"/>
<path d="M0 0 C2.0209846 1.65244463 2.92060026 2.52789679 3.36076355 5.14506531 C3.35410172 5.97335342 3.34743988 6.80164154 3.34057617 7.6550293 C3.34034958 8.59577805 3.34012299 9.53652679 3.33988953 10.50578308 C3.32440567 11.51836685 3.30892181 12.53095062 3.29296875 13.57421875 C3.28872391 14.61318802 3.28447906 15.65215729 3.28010559 16.72261047 C3.26329849 20.04450276 3.22564196 23.36579075 3.1875 26.6875 C3.17245582 28.93814229 3.15876695 31.18879407 3.14648438 33.43945312 C3.11338836 38.95984197 3.06316869 44.47987782 3 50 C4.32 50 5.64 50 7 50 C7 34.49 7 18.98 7 3 C7.33 3 7.66 3 8 3 C8 18.18 8 33.36 8 49 C10.31 49 12.62 49 15 49 C15.66 49.66 16.32 50.32 17 51 C14.03 51 11.06 51 8 51 C8.33 51.61875 8.66 52.2375 9 52.875 C11.44708699 60.52214685 9.819667 68.36389742 8 76 C6.02 76 4.04 76 2 76 C0.89654494 67.72408707 -0.04208823 59.16835293 2 51 C-0.97 51 -3.94 51 -7 51 C-3.5647952 48.70986347 -2.014669 48.82157027 2 49 C1.88231023 42.66441544 1.75748057 36.3290004 1.62768555 29.99365234 C1.58437309 27.83841135 1.54269537 25.68313686 1.50268555 23.52783203 C1.44489382 20.42991033 1.38122477 17.33215666 1.31640625 14.234375 C1.29969376 13.27070007 1.28298126 12.30702515 1.26576233 11.31414795 C1.24581711 10.41351624 1.22587189 9.51288452 1.20532227 8.58496094 C1.18977798 7.79442322 1.1742337 7.0038855 1.15821838 6.18939209 C1.00142547 4.01972541 0.59384319 2.08863467 0 0 Z " fill="#718396" transform="translate(167,271)"/>
<path d="M0 0 C33.33 0 66.66 0 101 0 C101 0.99 101 1.98 101 3 C67.67 3 34.34 3 0 3 C0 2.01 0 1.02 0 0 Z " fill="#F56D6C" transform="translate(205,184)"/>
<path d="M0 0 C23.43 0.33 46.86 0.66 71 1 C71 1.33 71 1.66 71 2 C70.27559219 2.01030746 69.55118439 2.02061493 68.80482483 2.03123474 C61.99148098 2.12904768 55.178222 2.23153859 48.36502934 2.33933926 C44.86195645 2.39459955 41.35887527 2.44802434 37.85571289 2.49731445 C33.83209856 2.55400668 29.80864469 2.61857401 25.78515625 2.68359375 C24.52163834 2.70030624 23.25812042 2.71701874 21.95631409 2.73423767 C20.795186 2.75418289 19.63405792 2.77412811 18.43774414 2.79467773 C17.40960098 2.81022202 16.38145782 2.8257663 15.32215881 2.84178162 C13.03914647 2.74171871 13.03914647 2.74171871 12 4 C41.205 4.495 41.205 4.495 71 5 C71 5.99 71 6.98 71 8 C48.89 8 26.78 8 4 8 C4 7.01 4 6.02 4 5 C4.99 5 5.98 5 7 5 C7 4.34 7 3.68 7 3 C5.02 3.33 3.04 3.66 1 4 C0.67 2.68 0.34 1.36 0 0 Z " fill="#8AACBE" transform="translate(367,115)"/>
<path d="M0 0 C22.11 0 44.22 0 67 0 C67 0.66 67 1.32 67 2 C57.98185679 3.14516104 49.0719352 3.09471858 40 3 C40 3.66 40 4.32 40 5 C41.32 5 42.64 5 44 5 C44 5.66 44 6.32 44 7 C29.81 7 15.62 7 1 7 C1 6.34 1 5.68 1 5 C18.325 4.505 18.325 4.505 36 4 C24.45 3.67 12.9 3.34 1 3 C0.67 2.01 0.34 1.02 0 0 Z " fill="#99B9CB" transform="translate(398,173)"/>
<path d="M0 0 C1.87767029 -0.32279968 1.87767029 -0.32279968 4.21264648 -0.2487793 C5.54341217 -0.21842339 5.54341217 -0.21842339 6.90106201 -0.18745422 C7.88117249 -0.15008652 8.86128296 -0.11271881 9.87109375 -0.07421875 C11.42670013 -0.03442146 11.42670013 -0.03442146 13.01373291 0.00617981 C15.28791848 0.06510947 17.56194281 0.1305205 19.83578491 0.20147705 C26.0198913 0.39210227 32.20517195 0.52914621 38.390625 0.66796875 C39.70749802 0.69834229 41.02437103 0.72871582 42.38114929 0.76000977 C58.06439022 1.10810713 73.74819956 1.12898931 89.43468094 1.12472153 C91.6887916 1.12500016 93.94288366 1.12795479 96.19699097 1.13174438 C99.76117965 1.13754043 103.32532777 1.13808239 106.88951874 1.13413048 C108.83855714 1.13284428 110.78759689 1.13580348 112.7366333 1.13887024 C113.90208679 1.13574326 115.06754028 1.13261627 116.26831055 1.12939453 C117.28378464 1.12859894 118.29925873 1.12780334 119.34550476 1.12698364 C121.72384521 1.01321047 123.72758906 0.68086792 126 0 C124.91142273 1.47871399 124.91142273 1.47871399 123 3 C120.05769348 3.36076355 120.05769348 3.36076355 116.41723633 3.34057617 C115.75355545 3.34101425 115.08987457 3.34145233 114.40608215 3.34190369 C112.21443161 3.33981519 110.02354799 3.31648268 107.83203125 3.29296875 C106.3117464 3.28737298 104.79145614 3.28310279 103.27116394 3.28010559 C99.27122035 3.26865524 95.27160394 3.23918672 91.27178955 3.20599365 C86.4719036 3.16989891 81.6719082 3.15613249 76.87192535 3.13863373 C69.58105606 3.10954915 62.29090457 3.05206412 55 3 C55 17.19 55 31.38 55 46 C54.67 46 54.34 46 54 46 C54 31.48 54 16.96 54 2 C52.68 2 51.36 2 50 2 C50 16.52 50 31.04 50 46 C49.67 46 49.34 46 49 46 C49 31.81 49 17.62 49 3 C32.17 3 15.34 3 -2 3 C-1.34 2.01 -0.68 1.02 0 0 Z " fill="#BCC6CF" transform="translate(366,239)"/>
<path d="M0 0 C7.06735014 0 7.35039837 0.45852864 12 5 C13.74990768 8.49981536 13.551032 12.18122006 13 16 C11.69913504 18.94214318 10.60203803 19.83163498 8 22 C4.04 22.495 4.04 22.495 0 23 C0 15.41 0 7.82 0 0 Z " fill="#DBE7E8" transform="translate(369,174)"/>
<path d="M0 0 C8.25 0 16.5 0 25 0 C25 3.3 25 6.6 25 10 C16.75 10 8.5 10 0 10 C0 6.7 0 3.4 0 0 Z " fill="#415367" transform="translate(221,353)"/>
<path d="M0 0 C1.65 0 3.3 0 5 0 C5 0.66 5 1.32 5 2 C4.01 2 3.02 2 2 2 C2 2.99 2 3.98 2 5 C24.11 5 46.22 5 69 5 C69 5.99 69 6.98 69 8 C46.23 8 23.46 8 0 8 C0 5.36 0 2.72 0 0 Z " fill="#F1FEFE" transform="translate(369,118)"/>
<path d="M0 0 C0 3.63 0 7.26 0 11 C1.32 11 2.64 11 4 11 C4 11.99 4 12.98 4 14 C3.360625 14.28875 2.72125 14.5775 2.0625 14.875 C-0.15206079 15.82823451 -0.15206079 15.82823451 -1 18 C-1.66 18 -2.32 18 -3 18 C-3.33 19.32 -3.66 20.64 -4 22 C-4 20.02 -4 18.04 -4 16 C-5.95825873 15.97305149 -7.91662226 15.95362782 -9.875 15.9375 C-10.96554688 15.92589844 -12.05609375 15.91429687 -13.1796875 15.90234375 C-15.95177546 15.80255697 -15.95177546 15.80255697 -18 17 C-19.87862875 16.91255632 -21.75455181 16.75824458 -23.625 16.5625 C-24.62789062 16.46066406 -25.63078125 16.35882813 -26.6640625 16.25390625 C-27.43492187 16.17011719 -28.20578125 16.08632813 -29 16 C-28.67 14.35 -28.34 12.7 -28 11 C-24.7 11 -21.4 11 -18 11 C-18 9.68 -18 8.36 -18 7 C-17.01 7 -16.02 7 -15 7 C-15 8.32 -15 9.64 -15 11 C-11.37 11 -7.74 11 -4 11 C-4.061875 9.55625 -4.12375 8.1125 -4.1875 6.625 C-4.29296875 4.1640625 -4.29296875 4.1640625 -4 2 C-1 0 -1 0 0 0 Z " fill="#283647" transform="translate(250,323)"/>
<path d="M0 0 C0.33 0 0.66 0 1 0 C1 2.31 1 4.62 1 7 C1.99 7 2.98 7 4 7 C4 4.69 4 2.38 4 0 C4.33 0 4.66 0 5 0 C5.06058594 0.68707031 5.12117188 1.37414062 5.18359375 2.08203125 C5.26738281 2.98308594 5.35117187 3.88414062 5.4375 4.8125 C5.51871094 5.70582031 5.59992188 6.59914063 5.68359375 7.51953125 C5.93489767 10.12743559 5.93489767 10.12743559 7 13 C9.64 13.33 12.28 13.66 15 14 C15 14.33 15 14.66 15 15 C11.7 15 8.4 15 5 15 C5 17.97 5 20.94 5 24 C4.67 24 4.34 24 4 24 C3.92652344 23.04287109 3.92652344 23.04287109 3.8515625 22.06640625 C3.73941406 20.82697266 3.73941406 20.82697266 3.625 19.5625 C3.55539062 18.73878906 3.48578125 17.91507812 3.4140625 17.06640625 C3.27742188 16.38449219 3.14078125 15.70257813 3 15 C2.34 14.67 1.68 14.34 1 14 C1.01160156 14.71027344 1.02320313 15.42054688 1.03515625 16.15234375 C1.04869141 17.53099609 1.04869141 17.53099609 1.0625 18.9375 C1.07410156 19.85402344 1.08570313 20.77054687 1.09765625 21.71484375 C1 24 1 24 0 25 C-3.33618231 25.14257189 -6.65975606 25.04228157 -10 25 C-10 21.7 -10 18.4 -10 15 C-5.545 14.505 -5.545 14.505 -1 14 C-1 13.67 -1 13.34 -1 13 C-3.64 12.34 -6.28 11.68 -9 11 C-9 10.67 -9 10.34 -9 10 C-6.03 10 -3.06 10 0 10 C0 6.7 0 3.4 0 0 Z " fill="#334357" transform="translate(289,324)"/>
<path d="M0 0 C0.66 0 1.32 0 2 0 C2 16.17 2 32.34 2 49 C0.68 49 -0.64 49 -2 49 C-2.04955115 42.98601473 -2.08579131 36.97214914 -2.10986328 30.95800781 C-2.11990179 28.91339039 -2.13353542 26.86878726 -2.15087891 24.82421875 C-2.1752217 21.88017239 -2.18650478 18.93631637 -2.1953125 15.9921875 C-2.20563507 15.0825827 -2.21595764 14.17297791 -2.22659302 13.23580933 C-2.22743991 8.41195461 -1.88400471 4.53073798 0 0 Z " fill="#2D3B4A" transform="translate(172,272)"/>
<path d="M0 0 C1.32 0 2.64 0 4 0 C4 14.85 4 29.7 4 45 C2.68 44.67 1.36 44.34 0 44 C0 29.48 0 14.96 0 0 Z " fill="#384555" transform="translate(416,241)"/>
<path d="M0 0 C1.16105255 0.00007553 2.3221051 0.00015106 3.51834106 0.00022888 C4.77669769 0.00539017 6.03505432 0.01055145 7.33154297 0.01586914 C8.61608368 0.01728409 9.90062439 0.01869904 11.22409058 0.02015686 C14.64029889 0.02397628 18.05646473 0.03380166 21.47265625 0.04486084 C24.95816473 0.05508732 28.44368006 0.05965713 31.92919922 0.06469727 C38.76906042 0.07542444 45.60889341 0.09249397 52.44873047 0.11352539 C51.78873047 0.44352539 51.12873047 0.77352539 50.44873047 1.11352539 C50.44873047 1.77352539 50.44873047 2.43352539 50.44873047 3.11352539 C31.63873047 3.11352539 12.82873047 3.11352539 -6.55126953 3.11352539 C-6.88126953 2.45352539 -7.21126953 1.79352539 -7.55126953 1.11352539 C-4.91411857 -0.20505009 -2.95294313 -0.00639165 0 0 Z " fill="#F1FEFE" transform="translate(385.55126953125,116.886474609375)"/>
<path d="M0 0 C18.15 0 36.3 0 55 0 C54.01 0.33 53.02 0.66 52 1 C52 1.66 52 2.32 52 3 C34.84 3 17.68 3 0 3 C0 2.01 0 1.02 0 0 Z " fill="#E5F8FE" transform="translate(399,169)"/>
<path d="M0 0 C22.77 0 45.54 0 69 0 C69 0.66 69 1.32 69 2 C45.8913921 2.92208814 23.10096562 3.096851 0 2 C0 1.34 0 0.68 0 0 Z " fill="#A4C1D3" transform="translate(369,126)"/>
<path d="M0 0 C0.495 0.99 0.495 0.99 1 2 C-5.27 2.33 -11.54 2.66 -18 3 C-4.635 3.495 -4.635 3.495 9 4 C9 4.33 9 4.66 9 5 C-15.67213597 5.99728264 -40.31025561 6.11703861 -65 6 C-65 5.34 -65 4.68 -65 4 C-50.81 4 -36.62 4 -22 4 C-22 3.34 -22 2.68 -22 2 C-23.32 2 -24.64 2 -26 2 C-26 1.34 -26 0.68 -26 0 C-7.15830875 -1.40609636 -7.15830875 -1.40609636 0 0 Z " fill="#EDFBFE" transform="translate(464,176)"/>
<path d="M0 0 C2.64 0 5.28 0 8 0 C8 0.66 8 1.32 8 2 C8.66 1.67 9.32 1.34 10 1 C12.88370333 0.92805131 15.74239664 0.90708292 18.625 0.9375 C19.82769531 0.94426758 19.82769531 0.94426758 21.0546875 0.95117188 C23.03649006 0.96296832 25.01825433 0.98090395 27 1 C27 1.99 27 2.98 27 4 C22.05 4.33 17.1 4.66 12 5 C12 5.33 12 5.66 12 6 C9.36 6 6.72 6 4 6 C4 5.34 4 4.68 4 4 C-13.16 3.67 -30.32 3.34 -48 3 C-48 2.67 -48 2.34 -48 2 C-32.16 1.67 -16.32 1.34 0 1 C0 0.67 0 0.34 0 0 Z " fill="#9BB7C8" transform="translate(447,166)"/>
<path d="M0 0 C3.1862793 -0.45410156 3.1862793 -0.45410156 7.07421875 -0.390625 C8.09996758 -0.38213531 8.09996758 -0.38213531 9.1464386 -0.37347412 C11.32750899 -0.35110816 13.50692753 -0.30091765 15.6875 -0.25 C17.16729395 -0.229935 18.6471137 -0.21168422 20.12695312 -0.1953125 C23.7518376 -0.15124474 27.37575756 -0.08221822 31 0 C31.495 1.98 31.495 1.98 32 4 C20.45 4 8.9 4 -3 4 C-2.01 2.68 -1.02 1.36 0 0 Z " fill="#ADCAD6" transform="translate(393,223)"/>
<path d="M0 0 C4.29 0 8.58 0 13 0 C13 3.3 13 6.6 13 10 C8.71 10 4.42 10 0 10 C0 6.7 0 3.4 0 0 Z " fill="#4B6178" transform="translate(349,353)"/>
<path d="M0 0 C3.63 0 7.26 0 11 0 C11 3.3 11 6.6 11 10 C7.37 10 3.74 10 0 10 C0 6.7 0 3.4 0 0 Z " fill="#4B6177" transform="translate(308,339)"/>
<path d="M0 0 C3.63 0 7.26 0 11 0 C11 3.3 11 6.6 11 10 C7.37 10 3.74 10 0 10 C0 6.7 0 3.4 0 0 Z " fill="#3F5264" transform="translate(221,339)"/>
<path d="M0 0 C3.63 0 7.26 0 11 0 C11 3.3 11 6.6 11 10 C7.37 10 3.74 10 0 10 C0 6.7 0 3.4 0 0 Z " fill="#4C6078" transform="translate(308,324)"/>
<path d="M0 0 C3.63 0 7.26 0 11 0 C11 3.3 11 6.6 11 10 C7.37 10 3.74 10 0 10 C0 6.7 0 3.4 0 0 Z " fill="#415367" transform="translate(250,324)"/>
<path d="M0 0 C3.63 0 7.26 0 11 0 C11 3.3 11 6.6 11 10 C7.37 10 3.74 10 0 10 C0 6.7 0 3.4 0 0 Z " fill="#405265" transform="translate(235,324)"/>
<path d="M0 0 C3.63 0 7.26 0 11 0 C11 3.3 11 6.6 11 10 C7.37 10 3.74 10 0 10 C0 6.7 0 3.4 0 0 Z " fill="#405266" transform="translate(221,324)"/>
<path d="M0 0 C3.3 0 6.6 0 10 0 C10 3.3 10 6.6 10 10 C6.7 10 3.4 10 0 10 C0 6.7 0 3.4 0 0 Z " fill="#4D6179" transform="translate(352,339)"/>
<path d="M0 0 C3.3 0 6.6 0 10 0 C10 3.3 10 6.6 10 10 C6.7 10 3.4 10 0 10 C0 6.7 0 3.4 0 0 Z " fill="#415268" transform="translate(279,339)"/>
<path d="M0 0 C3.3 0 6.6 0 10 0 C10 3.3 10 6.6 10 10 C6.7 10 3.4 10 0 10 C0 6.7 0 3.4 0 0 Z " fill="#435468" transform="translate(265,339)"/>
<path d="M0 0 C3.3 0 6.6 0 10 0 C10 3.3 10 6.6 10 10 C6.7 10 3.4 10 0 10 C0 6.7 0 3.4 0 0 Z " fill="#415366" transform="translate(250,339)"/>
<path d="M0 0 C3.3 0 6.6 0 10 0 C10 3.3 10 6.6 10 10 C6.7 10 3.4 10 0 10 C0 6.7 0 3.4 0 0 Z " fill="#4D6379" transform="translate(352,324)"/>
<path d="M0 0 C3.3 0 6.6 0 10 0 C10 3.3 10 6.6 10 10 C6.7 10 3.4 10 0 10 C0 6.7 0 3.4 0 0 Z " fill="#4C6279" transform="translate(337,324)"/>
<path d="M0 0 C3.3 0 6.6 0 10 0 C10 3.3 10 6.6 10 10 C6.7 10 3.4 10 0 10 C0 6.7 0 3.4 0 0 Z " fill="#4D6379" transform="translate(323,324)"/>
<path d="M0 0 C3.3 0 6.6 0 10 0 C10 3.3 10 6.6 10 10 C6.7 10 3.4 10 0 10 C0 6.7 0 3.4 0 0 Z " fill="#4D627A" transform="translate(294,324)"/>
<path d="M0 0 C3.3 0 6.6 0 10 0 C10 3.3 10 6.6 10 10 C6.7 10 3.4 10 0 10 C0 6.7 0 3.4 0 0 Z " fill="#4D637A" transform="translate(279,324)"/>
<path d="M0 0 C3.3 0 6.6 0 10 0 C10 3.3 10 6.6 10 10 C6.7 10 3.4 10 0 10 C0 6.7 0 3.4 0 0 Z " fill="#4D6279" transform="translate(265,324)"/>
<path d="M0 0 C0.99 0.33 1.98 0.66 3 1 C2.67 2.32 2.34 3.64 2 5 C-25.39 5 -52.78 5 -81 5 C-81 4.67 -81 4.34 -81 4 C-54.27 4 -27.54 4 0 4 C0 2.68 0 1.36 0 0 Z " fill="#FFF1ED" transform="translate(483,91)"/>
<path d="M0 0 C5 0 5 0 6.8125 1.0625 C8.69021039 4.12613274 8.43729494 6.50164045 8 10 C6.25 11.9375 6.25 11.9375 4 13 C2.68 13 1.36 13 0 13 C0 8.71 0 4.42 0 0 Z " fill="#BFCBCE" transform="translate(369,179)"/>
<path d="M0 0 C3.3 0 6.6 0 10 0 C10 2.97 10 5.94 10 9 C6.7 9 3.4 9 0 9 C0 6.03 0 3.06 0 0 Z " fill="#4C627A" transform="translate(337,339)"/>
<path d="M0 0 C3.3 0 6.6 0 10 0 C10 2.97 10 5.94 10 9 C6.7 9 3.4 9 0 9 C0 6.03 0 3.06 0 0 Z " fill="#4C637A" transform="translate(323,339)"/>
<path d="M0 0 C3.3 0 6.6 0 10 0 C10 2.97 10 5.94 10 9 C6.7 9 3.4 9 0 9 C0 6.03 0 3.06 0 0 Z " fill="#425468" transform="translate(236,339)"/>
<path d="M0 0 C6.93 0 13.86 0 21 0 C21 1.32 21 2.64 21 4 C14.07 4 7.14 4 0 4 C0 2.68 0 1.36 0 0 Z " fill="#BDCBCC" transform="translate(372,91)"/>
<path d="M0 0 C1.32 0.66 2.64 1.32 4 2 C4.45833545 6.58335447 4.81795523 10.63591423 2 14.5 C-1.88464068 17.73720057 -4.02691408 17.83142082 -9 18 C-9 16.68 -9 15.36 -9 14 C-7.329375 13.5978125 -7.329375 13.5978125 -5.625 13.1875 C-1.78159049 12.34190981 -1.78159049 12.34190981 0 9 C0.24107326 6.71351152 0.24107326 6.71351152 0.125 4.3125 C0.09792969 3.10013672 0.09792969 3.10013672 0.0703125 1.86328125 C0.04710937 1.24839844 0.02390625 0.63351563 0 0 Z " fill="#CFDCDD" transform="translate(378,179)"/>
<path d="M0 0 C2.97 0 5.94 0 9 0 C8.67 2.64 8.34 5.28 8 8 C2.72 8 -2.56 8 -8 8 C-8 7.01 -8 6.02 -8 5 C-3.71 5 0.58 5 5 5 C5 4.34 5 3.68 5 3 C3.35 3 1.7 3 0 3 C0 2.01 0 1.02 0 0 Z " fill="#A4C0CF" transform="translate(476,167)"/>
<path d="M0 0 C1.9375 1.0625 1.9375 1.0625 3 3 C3.90602977 6.55940268 4.42801951 8.91568392 3.0625 12.375 C-0.05639455 14.83231086 -3.07109778 15.30575115 -7 15 C-10 13.5 -10 13.5 -12 11 C-12.63210717 7.06688873 -12.60020266 4.97532932 -10.5 1.5625 C-6.75107996 -0.78057502 -4.38964238 -0.48773804 0 0 Z M-9.375 3.1875 C-11.24947755 5.84747321 -11.24947755 5.84747321 -10.875 8.6875 C-10.12456118 11.14951065 -10.12456118 11.14951065 -8 13 C-3.33771115 13.4640446 -3.33771115 13.4640446 0.9375 11.875 C2.52225401 9.07837528 2.45947423 7.1506804 2 4 C-0.07415486 1.69538349 -1.47399051 1.1052019 -4.5 0.5 C-7.21515257 0.81766799 -7.21515257 0.81766799 -9.375 3.1875 Z " fill="#E7F2F3" transform="translate(470,126)"/>
<path d="M0 0 C0.33 0 0.66 0 1 0 C1 2.97 1 5.94 1 9 C4.3 9 7.6 9 11 9 C11 6.03 11 3.06 11 0 C11.33 0 11.66 0 12 0 C12.33 1.98 12.66 3.96 13 6 C13.66 6 14.32 6 15 6 C15 6.99 15 7.98 15 9 C18.3 9 21.6 9 25 9 C25 6.03 25 3.06 25 0 C25.33 0 25.66 0 26 0 C26 3.3 26 6.6 26 10 C21.71 10 17.42 10 13 10 C12.67 10.66 12.34 11.32 12 12 C12 11.34 12 10.68 12 10 C8.04 10 4.08 10 0 10 C0 6.7 0 3.4 0 0 Z " fill="#3A4B60" transform="translate(322,339)"/>
<path d="M0 0 C4 0 4 0 6.375 1.4375 C8.34136841 4.53831172 8.02612987 5.27927842 7.25 8.75 C6.85525172 10.17292985 6.44524767 11.59205466 6 13 C5 11 4 9 3 7 C0.88153715 6.31270746 0.88153715 6.31270746 -1.5625 5.875 C-2.38878906 5.70742188 -3.21507812 5.53984375 -4.06640625 5.3671875 C-4.70449219 5.24601562 -5.34257812 5.12484375 -6 5 C-5.38125 4.54625 -4.7625 4.0925 -4.125 3.625 C-1.94080167 2.02891081 -1.94080167 2.02891081 0 0 Z " fill="#5B6676" transform="translate(165,265)"/>
<path d="M0 0 C0.66 0.66 1.32 1.32 2 2 C1.81155428 4.82668574 0.94576361 6.06919815 -0.8125 8.3125 C-3 10 -3 10 -5.1875 9.9375 C-7 9 -7 9 -8 6 C-7.34 6 -6.68 6 -6 6 C-5.7525 5.38125 -5.505 4.7625 -5.25 4.125 C-3.79371361 1.64931313 -2.62187494 1.04874998 0 0 Z " fill="#4E5E6C" transform="translate(418,284)"/>
<path d="M0 0 C3.63 0 7.26 0 11 0 C11 1.65 11 3.3 11 5 C7.37 5 3.74 5 0 5 C0 3.35 0 1.7 0 0 Z " fill="#4B5E76" transform="translate(322,314)"/>
<path d="M0 0 C3.63 0 7.26 0 11 0 C11 1.65 11 3.3 11 5 C7.37 5 3.74 5 0 5 C0 3.35 0 1.7 0 0 Z " fill="#4C5E75" transform="translate(308,314)"/>
<path d="M0 0 C3.63 0 7.26 0 11 0 C11 1.65 11 3.3 11 5 C7.37 5 3.74 5 0 5 C0 3.35 0 1.7 0 0 Z " fill="#4C5F75" transform="translate(279,314)"/>
<path d="M0 0 C3.63 0 7.26 0 11 0 C11 1.65 11 3.3 11 5 C7.37 5 3.74 5 0 5 C0 3.35 0 1.7 0 0 Z " fill="#4B5E76" transform="translate(250,314)"/>
<path d="M0 0 C3.63 0 7.26 0 11 0 C11 1.65 11 3.3 11 5 C7.37 5 3.74 5 0 5 C0 3.35 0 1.7 0 0 Z " fill="#4A5C73" transform="translate(235,314)"/>
<path d="M0 0 C3.63 0 7.26 0 11 0 C11 1.65 11 3.3 11 5 C7.37 5 3.74 5 0 5 C0 3.35 0 1.7 0 0 Z " fill="#405265" transform="translate(221,314)"/>
<path d="M0 0 C3.63 0 7.26 0 11 0 C11 1.65 11 3.3 11 5 C7.37 5 3.74 5 0 5 C0 3.35 0 1.7 0 0 Z " fill="#4B5E76" transform="translate(337,314)"/>
<path d="M0 0 C0.99 0.33 1.98 0.66 3 1 C3 2.32 3 3.64 3 5 C5.475 5.99 5.475 5.99 8 7 C6.6875 9 6.6875 9 5 11 C2 11 2 11 -0.1875 9 C-0.785625 8.34 -1.38375 7.68 -2 7 C-1.34 4.69 -0.68 2.38 0 0 Z " fill="#576674" transform="translate(107,256)"/>
<path d="M0 0 C2.625 0.375 2.625 0.375 5 1 C6.125 5.75 6.125 5.75 5 8 C3.00045254 8.04254356 0.99958364 8.04080783 -1 8 C-2 7 -2 7 -2.1875 4.5625 C-2 2 -2 2 0 0 Z " fill="#E9F5F7" transform="translate(464,129)"/>
<path d="M0 0 C4.29 0 8.58 0 13 0 C13 1.32 13 2.64 13 4 C8.71 4 4.42 4 0 4 C0 2.68 0 1.36 0 0 Z " fill="#C3CFD2" transform="translate(354,91)"/>
<path d="M0 0 C3.3 0 6.6 0 10 0 C10 1.65 10 3.3 10 5 C6.7 5 3.4 5 0 5 C0 3.35 0 1.7 0 0 Z " fill="#4E6077" transform="translate(352,314)"/>
<path d="M0 0 C3.3 0 6.6 0 10 0 C10 1.65 10 3.3 10 5 C6.7 5 3.4 5 0 5 C0 3.35 0 1.7 0 0 Z " fill="#4D6077" transform="translate(294,314)"/>
<path d="M0 0 C3.3 0 6.6 0 10 0 C10 1.65 10 3.3 10 5 C6.7 5 3.4 5 0 5 C0 3.35 0 1.7 0 0 Z " fill="#4D6077" transform="translate(265,314)"/>
<path d="M0 0 C0.598125 0.226875 1.19625 0.45375 1.8125 0.6875 C0.8225 2.1725 0.8225 2.1725 -0.1875 3.6875 C0.4725 4.0175 1.1325 4.3475 1.8125 4.6875 C0.4375 6.1875 0.4375 6.1875 -1.1875 7.6875 C-1.8475 7.6875 -2.5075 7.6875 -3.1875 7.6875 C-3.5175 8.3475 -3.8475 9.0075 -4.1875 9.6875 C-4.5175 8.6975 -4.8475 7.7075 -5.1875 6.6875 C-5.8475 6.6875 -6.5075 6.6875 -7.1875 6.6875 C-3.9375 -0.5625 -3.9375 -0.5625 0 0 Z " fill="#525F6E" transform="translate(112.1875,182.3125)"/>
<path d="M0 0 C0.33 1.32 0.66 2.64 1 4 C1.66 3.67 2.32 3.34 3 3 C3 2.01 3 1.02 3 0 C3.99 0 4.98 0 6 0 C6 3.92896395 4.99700137 7.19893228 4 11 C2.33333333 11 0.66666667 11 -1 11 C-1.0270043 9.54176788 -1.04639787 8.08339325 -1.0625 6.625 C-1.07410156 5.81289063 -1.08570313 5.00078125 -1.09765625 4.1640625 C-1 2 -1 2 0 0 Z " fill="#6E7B89" transform="translate(288,297)"/>
<path d="M0 0 C4.875 0.875 4.875 0.875 6 2 C6.125 4.5 6.125 4.5 6 7 C5 8 5 8 2.4375 8.0625 C1.633125 8.041875 0.82875 8.02125 0 8 C0 5.36 0 2.72 0 0 Z " fill="#D2DFE2" transform="translate(369,181)"/>
<path d="M0 0 C0 0.99 0 1.98 0 3 C-4.62 3 -9.24 3 -14 3 C-14 2.01 -14 1.02 -14 0 C-9.20699867 -1.39151652 -4.84864218 -0.68662689 0 0 Z " fill="#767A7D" transform="translate(388,209)"/>
<path d="M0 0 C4.95 1.98 4.95 1.98 10 4 C10 4.66 10 5.32 10 6 C6.7 6 3.4 6 0 6 C0 4.02 0 2.04 0 0 Z " fill="#435569" transform="translate(265,328)"/>
<path d="M0 0 C2.10388569 -0.05402274 4.20816714 -0.09280256 6.3125 -0.125 C8.07013672 -0.15980469 8.07013672 -0.15980469 9.86328125 -0.1953125 C13 0 13 0 16 2 C14.02 2.99 14.02 2.99 12 4 C12 4.33 12 4.66 12 5 C10.35 5 8.7 5 7 5 C7 4.34 7 3.68 7 3 C5.02 3.33 3.04 3.66 1 4 C0.67 2.68 0.34 1.36 0 0 Z " fill="#DCEEF4" transform="translate(367,115)"/>
<path d="M0 0 C0 1.65 0 3.3 0 5 C-2.31 4.67 -4.62 4.34 -7 4 C-7.33 2.68 -7.66 1.36 -8 0 C-4.71303767 -0.79953138 -3.28976808 -1.09658936 0 0 Z " fill="#CEDEE3" transform="translate(484,176)"/>
<path d="M0 0 C1.65 0 3.3 0 5 0 C5.33 1.65 5.66 3.3 6 5 C3.625 5.625 3.625 5.625 1 6 C0.34 5.34 -0.32 4.68 -1 4 C-0.625 1.875 -0.625 1.875 0 0 Z " fill="#9C2F39" transform="translate(480,64)"/>
<path d="M0 0 C2.64 0 5.28 0 8 0 C7.8125 1.875 7.8125 1.875 7 4 C4.4375 5.25 4.4375 5.25 2 6 C1.34 5.34 0.68 4.68 0 4 C0 2.68 0 1.36 0 0 Z " fill="#313E50" transform="translate(175,322)"/>
<path d="M0 0 C0.33 1.32 0.66 2.64 1 4 C0.34 4.45375 -0.32 4.9075 -1 5.375 C-1.99 6.179375 -1.99 6.179375 -3 7 C-3 7.66 -3 8.32 -3 9 C-3.99 9.495 -3.99 9.495 -5 10 C-5.66 10.99 -6.32 11.98 -7 13 C-6.9867458 9.89851659 -6.82092015 6.9997145 -6 4 C-2.9375 1.4375 -2.9375 1.4375 0 0 Z " fill="#313E4E" transform="translate(295,292)"/>
<path d="M0 0 C3.50166718 0.64845688 6.09856846 1.93845653 9 4 C10.3125 6.1875 10.3125 6.1875 11 8 C9.68 7.01 8.36 6.02 7 5 C6.01 6.485 6.01 6.485 5 8 C4.67 7.01 4.34 6.02 4 5 C3.01 4.67 2.02 4.34 1 4 C1.33 3.01 1.66 2.02 2 1 C1.34 0.67 0.68 0.34 0 0 Z " fill="#6E7B8B" transform="translate(289,263)"/>
<path d="M0 0 C1.67542976 0.28604898 3.34385343 0.61781233 5 1 C4.67 2.32 4.34 3.64 4 5 C2.68 5.33 1.36 5.66 0 6 C-0.38218767 4.34385343 -0.71395102 2.67542976 -1 1 C-0.67 0.67 -0.34 0.34 0 0 Z " fill="#4F90C3" transform="translate(472,64)"/>
<path d="M0 0 C1.67542976 0.28604898 3.34385343 0.61781233 5 1 C4.67 2.65 4.34 4.3 4 6 C2.68 5.67 1.36 5.34 0 5 C-0.5625 3.0625 -0.5625 3.0625 -1 1 C-0.67 0.67 -0.34 0.34 0 0 Z " fill="#AEE344" transform="translate(463,64)"/>
<path d="M0 0 C2.86724686 0.57344937 3.8614515 0.8614515 6 3 C8.43252661 3.46162427 8.43252661 3.46162427 11.125 3.625 C12.03507813 3.69976562 12.94515625 3.77453125 13.8828125 3.8515625 C14.58148438 3.90054687 15.28015625 3.94953125 16 4 C16 4.33 16 4.66 16 5 C14.10489301 5.08160748 12.20875496 5.13946459 10.3125 5.1875 C8.72888672 5.23970703 8.72888672 5.23970703 7.11328125 5.29296875 C3.64577232 4.96666615 1.81567552 3.99030125 -1 2 C-0.67 1.34 -0.34 0.68 0 0 Z " fill="#5D6D7A" transform="translate(162,364)"/>
<path d="M0 0 C2 3.75 2 3.75 2 6 C3.98 6 5.96 6 8 6 C8 6.33 8 6.66 8 7 C4.7 7 1.4 7 -2 7 C-1.125 1.125 -1.125 1.125 0 0 Z " fill="#3E4F61" transform="translate(267,342)"/>
<path d="M0 0 C1.9375 0.375 1.9375 0.375 4 1 C4.33 1.66 4.66 2.32 5 3 C7.58605332 3.4683265 7.58605332 3.4683265 10.5625 3.625 C12.08037109 3.73714844 12.08037109 3.73714844 13.62890625 3.8515625 C14.80259766 3.92503906 14.80259766 3.92503906 16 4 C16 4.33 16 4.66 16 5 C10.06 5.495 10.06 5.495 4 6 C2.68 4.02 1.36 2.04 0 0 Z " fill="#546677" transform="translate(362,112)"/>
<path d="M0 0 C2.97 0 5.94 0 9 0 C9 1.32 9 2.64 9 4 C6.03 3.01 3.06 2.02 0 1 C0 0.67 0 0.34 0 0 Z " fill="#4D6178" transform="translate(335,354)"/>
<path d="M0 0 C5.445 1.485 5.445 1.485 11 3 C11 3.33 11 3.66 11 4 C7.37 4 3.74 4 0 4 C0 2.68 0 1.36 0 0 Z " fill="#3C4D61" transform="translate(308,345)"/>
<path d="M0 0 C4.75 0.75 4.75 0.75 7 3 C7.125 5.625 7.125 5.625 7 8 C6.34 6.68 5.68 5.36 5 4 C3.02 4 1.04 4 -1 4 C-0.67 2.68 -0.34 1.36 0 0 Z " fill="#212432" transform="translate(480,61)"/>
<path d="M0 0 C1.32 0 2.64 0 4 0 C3.67 1.65 3.34 3.3 3 5 C1.68 4.67 0.36 4.34 -1 4 C-0.67 2.68 -0.34 1.36 0 0 Z " fill="#BDC9CC" transform="translate(464,131)"/>
<path d="M0 0 C2.64 0 5.28 0 8 0 C8 1.32 8 2.64 8 4 C2.25 2.25 2.25 2.25 0 0 Z " fill="#4F6279" transform="translate(296,339)"/>
<path d="M0 0 C0.66 0 1.32 0 2 0 C1.67 2.64 1.34 5.28 1 8 C0.01 7.34 -0.98 6.68 -2 6 C-1.34 4.02 -0.68 2.04 0 0 Z " fill="#3F4B5B" transform="translate(172,272)"/>
</svg>
